<?xml version="1.0" encoding="utf-8"?>
<!-- Generator: Adobe Illustrator 23.1.1, SVG Export Plug-In . SVG Version: 6.00 Build 0)  -->
<svg version="1.1" id="Layer_1" xmlns="http://www.w3.org/2000/svg" xmlns:xlink="http://www.w3.org/1999/xlink" x="0px" y="0px"
	 viewBox="0 0 3871 3359.1" style="enable-background:new 0 0 3871 3359.1;" xml:space="preserve">
<style type="text/css">
	.st0{fill-rule:evenodd;clip-rule:evenodd;fill:#F3F7FA;}
	.st1{fill-rule:evenodd;clip-rule:evenodd;fill:#FFFFFF;}
	.st2{fill-rule:evenodd;clip-rule:evenodd;fill:#E9EBF7;}
	.st3{fill-rule:evenodd;clip-rule:evenodd;fill:#E24C4D;}
	.st4{fill-rule:evenodd;clip-rule:evenodd;fill:#1A1B21;}
</style>
<title>composition-14</title>
<desc>Created with Sketch.</desc>
<g id="composition-14">
	<rect class="st0" width="3871" height="3359.1"/>
	<circle id="Oval" class="st1" cx="848.5" cy="2.5" r="392.5"/>
	<circle class="st2" cx="1867.5" cy="212.5" r="696.5"/>
	<circle class="st2" cx="2615.7" cy="67" r="551"/>
	<circle class="st2" cx="3356.1" cy="-217.7" r="551"/>
	<g transform="translate(-7.000000, 578.000000)">
		<path id="Accent" class="st3" d="M1411.4,737.4c-2.7,43.7-5.4,87.4-8,131.2c17.2-5,126.7-37.2,120-4.5
			c-4.9,23.4-35.6,48.8-51.3,65.1c-14.4,15-29.3,29.6-44.5,43.8c28-10.7,56.3-20.9,84.7-30.4c21.5-7.2,43.2-14.2,65.3-19.6
			c8.2-2,30.3-10.2,38-4.6c20.3,14.6-90,122.4-105.1,137.5c21.4-9.9,43.2-19,65.5-26.7c16.1-5.6,65.7-27,79.9-8.7
			c15.2,19.5-22.5,64.3-32.9,78.6c-15,20.4-31.2,39.9-48.2,58.6c70.8,63.6,154,120.1,242.5,155.3c64.9,25.8,128.7,32.3,197.2,18.2
			c70.4-14.5,137.9-42.4,202-74.3c37.7-18.7,74.9-39,110.3-61.7c-14.6-17.8-28.8-35.9-42.6-54.3c-19.7-26.3-43.8-55-55-86.3
			c-11-30.6,30.2-24.6,49.9-23c28.6,2.4,57.1,7.5,85.1,13.6c-19.8-13.8-39.3-28.1-58.3-42.9c-24.8-19.3-58-41.1-74.2-68.8
			c-14.3-24.4,17.1-18.2,31.6-15c34.6,7.6,68.3,20.6,101.3,33.3c24.2,9.3,48.2,19,72,29.2c-14.8-12.8-29-26.3-42.7-40.2
			c-18.4-18.7-43.3-41.6-51.6-67.4c-16.8-52.5,96.4-12.9,115.7-4.8c-3.6-54.4-7.1-108.9-10.7-163.3
			c-149.9,39.9-299.8,79.8-449.7,119.6c-16.2,4.3-36.5,13.7-53.4,14.2c-15.3,0.5-33.8-6.4-48.7-9.3L1624.1,778
			C1553.2,764.4,1482.3,750.9,1411.4,737.4"/>
		<g id="Ink" transform="translate(815.488355, 150.238721)">
			<path id="ink" class="st4" d="M2207.1,2459.2c-16.2,9.3-35.1,16.4-53.1,21.2c-10.6,2.8-28,11.5-37.3,3.5
				c-4.5-3.8-5.5-12.5-8.1-17.6c-4.2-8-10.1-14.9-15.6-21.9c-13.4-17.1-27.4-33.6-42-49.7c-6.9-7.6-19.6-25.4-31.8-24.2
				c-15.2,1.5-14.8,22.5-11,33.3c12.1,34.2,48.9,64.1,72.9,89.9c-6.1,9.4-39.6,8.3-48.9,6.1c-14.2-3.4-15.6-13.5-22.1-25
				c-15.2-27-45.9-42.2-71.2-58c-9.2-5.8-28.8-21.9-40.8-17.8c-11.4,3.8-10.9,18.4-7.3,27.9c5.5,14.4,21.1,24.3,32.6,33.4
				c15.4,12.1,29.4,25.2,42.2,40c-18.5,1.5-36.9,4.1-55.3,5.6c-22.3,1.8-40.8-10.4-61.3-17.3c-19-6.4-38-11.9-56.8-19.3
				c-21-8.3-43.1-11.2-64.3-18.5c-83.3-28.7-164.8-64.7-245-101.1c-38.2-17.3-75.7-34.6-115.5-48.2c-29-9.9-74.6-29.6-81.6-64.1
				c-3.7-18.3,9.7-37.9,11.7-56.2c2.3-21.5,0.5-45.1-6-65.7c-5.8-18.1-15.3-34.9-22.9-52.4c-8.8-20.3-0.9-20,16.1-22.3
				c20.4-2.8,44.2-14.2,63.4-21.7c22.1-8.6,44-20.7,64.2-33c18.3-11.2,34.2-25.6,48.8-41.3c14.8-15.9,24.4-34.8,38.7-51.2
				c52.9,65,103.1,131,159.3,193.2c26.5,29.4,55.3,53.6,88,75.9c13.6,9.3,27.2,20,42,27.3c18.6,9.2,39.4,14.9,58.5,23.4
				c73.3,32.3,143.2,67.5,211.5,109.2c33.1,20.1,60.8,43.2,89.9,68.5C2158.1,2399,2232.3,2444.8,2207.1,2459.2 M1347.8,1926.7
				c-11.8,5.4-23.1,12.3-35.8,15.8c3.6-21.8,23.9-54.6,50-51c10,1.4,17.5,9.1,13.1,19.8C1371.1,1920.9,1356.2,1922.9,1347.8,1926.7
				 M523.7,1336c-13.4,7.4-25.9,11.7-33.8-4.2C495.8,1330.7,522.2,1327.2,523.7,1336 M501.4,1291.1c-10.4-3.1-2.1-6.5,1.5-10.2
				c2.8-3,12-13.3,15.2-15c14.2-7.5,25.2,20.5,32,29.6C534,1294,517.1,1295.8,501.4,1291.1 M612.3,1388.1
				c-19.7,3.3-17.5-21.3-16.9-33.7C599.5,1359.5,627.6,1385.5,612.3,1388.1 M677.4,1345.7c-24,4-39.8-37.4-35.5-55.5
				c3.8-16,22.4-24.9,37.1-27.2c14.3-2.3,34.3,0.8,38.5,17.4C721.4,1295,693.4,1343,677.4,1345.7 M1244.7,1970.5
				c-17.2,5.3-34.1,6-51.4,11.2c-19.6,5.9-37.8,5.4-57.5,9.4c-8,1.6-29.6,13.3-37.4,10.7c-7.7-2.6-18.9-26.6-23.4-32.8
				c34.8-14.5,64.5-33.2,87.5-63.6c18.3-24.2,37.8-60.6,26.3-91.9c-13-35.3-57.6-42.9-87.3-28.2c-14.1,7-28,15.6-39.6,26.3
				c-13.3,12.1-18.5,25.4-27.1,40.4c-8.7,15.1-14.8,6.7-23.5-6.1c-7.4-11-6.5-22.1-15.7-32.9c-4.7-5.5-12.1-10.9-14.5-18
				c-1.6-4.5,1.7-12.6-1.2-16.1c-4.2-5-9.3,0.9-12.8-3.6c-2.5-3.3-1.7-10.7-4.3-14.7c-2.3-2.3-4.8-4.3-7.6-5.9
				c-3.4-1.7-4-3.8-1.9-6.3c-2.7-5-0.1-6.7-5.9-12.8c-9-9.5-17.2-18.6-23.7-29.8c-2.9-5.1-2.6-12.7-6.3-17.2
				c-5-6.1-13.3-5.2-17.6-12.7c-3.8-6.7-1.3-18.5-7.6-24.6c-3.3-0.9-6.7-1.9-10-2.8c-2.5-2.4-4-5.4-4.4-8.9
				c-3.5-5.4-4.2-11.7-8.6-17.5c-8.5-10.9-19.9-21-27.4-32.5c-7.9-12.1-3.7-14.1,10-18.5c12.3-3.9,23.6-7.5,35-14.2
				c52.9-30.8,103-112.3,19.1-137.3c-31.1-9.2-56.7-34.1-91.2-24.3c-15,4.2-29.2,13.3-40.3,24c-7.7,7.4-14.9,27.2-24.3,31
				c-17,6.8-9.8-10.2-14.7-18c-2.3-3.7-11.6-8-15-11.4c-4-4-7.9-9-10.8-13.9c-5.2-9.1-8.4-14.2-15.9-21.7c-2.8-2.8-17-17.3-4.2-15.4
				c-5.2-15.7,2.4-18.1,12.8-29.6c12.2-13.5,24.9-32.2,24.9-51.2c0.1-36.3-42.9-52.6-69.9-31c-5.5,4.4-38,46.7-31.4,19.7
				c3.6-14.6,36.8-52.6,52.2-42.7c-17.3-25.2-56.9,35.9-66.2,48.4c-7.9-14.5-8.4-25.9-21.5-37.1c-10.6,17-5-1.6-7.3-5.4
				c-5.1-8.2-2.3,1.2-5-1.7c-3.4-3.6-8.8-6.5-12.4-11.2c-6.2,8.4-3.7-0.6-5.6-3.8c-4.5-7.4-2.7-11.6-10.4-18.1
				c-5.6-4.7-16.5-11.9-24-12.6c-8.6-0.8-11,2.5-19.8,0.1c-11.2-3.1-25.3-7.9-19.8,10.8c3.9,13.6,19.9,21.3,23.4,35.2
				c3.5,14-10.3,28.1-17,39.5c-8.6,14.7-15.7,13.5-31.3,16.8c-10,2.1-23.3,6.7-14.7,18.7c6.1,8.6,20.4,6.8,28.5,11.9
				c11.3,7.2,11.1,24.9,25.6,27.9c15.9,3.4,25-14.3,38.4-18.6c9.5-3,39-2.7,46.5,4.5c10.2,9.7,1.4,28.4,4,40.5
				c3.8,18,16,19,31.3,19.6c18.9,0.7,25.6,18.9,35.7,33.3c23.8,33.7,44.5,69.7,68.9,103c10.8,14.7,26.6,27.8,35.5,43.8
				c10.9,19.8-4.2,31.1-17.3,45.3c-17.1,18.5-29.9,39.6-44.7,59.9c-13.2,18-29.6,13.5-50.6,13.5c4.7-9.7,10.3-15.7,21.9-14.5
				c-12.1-14.7-21.7,2.1-29.6,11.5c-11.3,13.5-26.1,16.8-40.7,25.6c-5.2,3.1-33.2,23.5-24.7,30.5c1,0.8,47.4-29.7,52.7-32.5
				c0,11.3-2.5,23-0.9,34.2c1.2,8.2,6.9,16.8,5.7,25.3c-2.3,16.1-23.2,28.8-32.1,41.4c-6.7,9.5-5.1,16.9-8.5,27.1
				c-3.1,9.3-1.5,6.5-9.3,9.3c-15.9,5.8-42.6,2.7-57-5.6c-8.9-5.1-15.8-13.3-23-20.4c-5.5-5.4-19.2-14.6-20.7-22.2
				c-2.6-13,23.2-37.2,28.4-50.6c14.4-37.9-10.3-67.3-48.9-69.5c11.9-9.2,26.6-2.3,39.1,1.2c-21.4-29.7-58-5.3-76.1,14.9
				c-12.4-31.3-18.4-64.4-26-97.1c-5.2-22.3-24.8-62-16-84.9c4.2-11.1,16.2-17.3,24.5-24.9c9.4-8.7,17.5-19.2,24.3-30
				c16.2-25.5,25.5-57.6,3.2-82.7c6.8-1.1,13.6-2.2,20.3-3.3c-11-10.4-28.4-5.3-42.7-8.4c-9.1-1.9-35.2-0.7-41.2-5.8
				c-7.3-6.2-2.6-34.6-2.4-43c0.6-19.6,2.2-38.5,4.4-58.1c2.1-18.4,1.6-38.4,5.5-56.5c3.1-14.7,13-19.2,24.4-27.9
				c27.3-20.7,49.5-45.9,40.2-81.6c3.3-0.5,6.6-1,9.9-1.6c-10.7-7.7-24.5-4.9-36.4-9c10.9-30.7,35-84.6,74.2-87.5
				c1.3,13.7,0.4,30,9.7,41.4c10.5,12.9,29,14.2,43.3,7.4c13-6.2,25.1-19.4,31.1-32.4c4-8.8,3.3-23.7,10.4-30.7
				c9.5-9.4,75.1-3.7,73,12.1c-1.2,9.3-18.7,24.9-23.6,33.1c-9,15.1-16.1,31.3-19.4,48.6c-5,26.3-2.1,60.9,24.6,74.7
				c30.3,15.7,67.3-4.3,92.2-21.5c13.7-9.5,26.9-19.9,39.4-30.9c6.6-5.8,13.3-11.9,19.2-18.5c4.3-4.9,7.8-12.8,13.1-16.5
				c12.6-8.7,24.9,6,35.6,13.5c17.3,12.1,34.6,23.6,53.2,33.7c37.8,20.5,72.3,47.5,105.7,74.4c33.6,27.1,68.2,54.9,95.4,88.6
				c-16.5,10.1-13.5,12.8-20.9,30.8c-5.2,12.8-12.4,23.7-13.2,38c-1.4,24.6,14.4,45.6,38.3,51c13.4,3,26.2,0.6,38.6-4.9
				c9.7-4.3,19.3-14.7,29.4-17.3c18.8-4.8,33.8,30.6,44.3,43.1c46.7,55.4,96,108.6,140,166.3c4.9,6.4,19.3,18.9,20.5,27.3
				c1.7,12.1-17.4,23.7-25.3,30.7c-4.2,3.7-48.3,45.2-33.5,51.8c4.2,1.9,16.6-23.6,19.7-25.8c11.6-8.2,2.8,7.8,2.1,15.9
				c-1.7,20.1,12.1,31,31.5,28.5c20.7-2.7,39.1-19,51.9-34.5c16,18.6,41.1,46.7,45.8,71.5c3,15.9-10.8,54.7,14.9,57.9
				c3.9,0.5,18.1-10,20.7-4c2.2,5-13.1,13.5-15.3,15.1c-9.4,7-15.1,14.6-22.7,23.1c-8.9,10-21.2,18.4-31.2,28
				c-10.6,10.1-31.5,37.5-45.5,24.3c-7-6.7-5.2-15.4-16.4-19.3c-10.2-3.6-23.2,1-32.8,4.9c-10.7,4.4-46,20.7-49.9,34
				c-5.4,18.4,23.8-3.7,29-7c-5.9,15-9.2,36.8-24.3,45.5C1276.5,1962,1258.5,1966.3,1244.7,1970.5 M1044.6,1857
				c10-32.2,69.1-89.6,106.5-71.6C1107.5,1794.4,1073,1824.2,1044.6,1857 M1066.7,1949.2c-14.6-8.1-13.8-31.7-18.9-45.5
				c-2.9-7.9-8.8-13.7-7-22.5c2-10.3,15.1-21.7,22.1-29.2c22-23.4,60.7-55.3,96.1-49.9c45.1,6.8,14.5,67.3-0.8,88.1
				C1145.1,1908,1094.7,1964.8,1066.7,1949.2 M961.5,1909.8c-48.7-3.3-97.3-7.6-145.4-16.6c-17-3.2-31.3-2.7-21.6-22.3
				c3.2-6.5,22.6-47,27-45.8c2.6,0.7,2,28.5,2.8,31.7c3.4,14.3,13.1,27.7,29.4,26.8c26.7-1.5,43.8-35.9,57.9-54.4
				c11.2,15.1,19.4,31.9,30.7,46.8C947.7,1883.1,966.5,1899.6,961.5,1909.8 M675.8,1718.5c-8.2,18.8-24.6,36.6-36.1,53.6
				c-6.5-13.7-11-45.1,4.3-55.2C649.8,1713.1,680.9,1706.7,675.8,1718.5 M844.8,1774.4c2.2-7.2,4.7-14.4,7.5-21.4
				C857.1,1768,859.6,1768.4,844.8,1774.4 M886.6,1789.8c5.9,10,15.8,19.9,14.2,32.5c-1.2,9.5-9.8,19.3-16,26
				c-10.2,11-32.8,32.1-47.5,17.5c-12.3-12.2-8-45.7-2.3-59.5C843.2,1786.6,872.4,1765.9,886.6,1789.8 M857.6,1769.2
				c3.4-1.3-3.7-23.2,2.9-25.4C866.2,1756.9,871.7,1760.5,857.6,1769.2 M764.5,1474.7c-2.2-8.1-7.2-7.7-5.4-17.7
				c1.2-6.5,6.4-13.5,10.3-18.7c7.9-10.3,18.2-18.9,29.4-25.3c23.7-13.6,56.1-19.3,77.3,2c-19.8,3.1-80.5,22.7-80.9,49.7
				c22-4.2,39.3-26.3,61.4-33.3c18.1-5.7,37.8-5.3,55.8,0.7c49.4,16.5,28.8,59.2,1,86.9c-16.5,16.4-36.4,28.7-58,37.2
				c-10,3.9-16.2,4.4-26,2.4c-1.8-0.4-4-3.8-6.2-4.5c-5.5-1.8-3.9,4.4-8.4,1.6c-4-2.4-12.4-18-15.1-22.5c-4.3-7.1-6.3-14-11.5-20.5
				c-5.3-6.5-7.8-15.2-12.7-21.1c-2.3-2.8-8.7-2.7-10.5-5.5C762.3,1482,765.6,1479,764.5,1474.7 M688.7,1792.8
				c11.2-19.5,30.4-36,45.3-53.1C734.8,1767.7,714.8,1786.9,688.7,1792.8 M703.8,1801.8c23.2-8.1,35.9-27.6,38.3-51.3
				c3-29.9,21.8-45.7,33.1-72.6c4.3-10.3,9.4-44.2,26.2-34.5c5.8,3.3,9.2,15.9,12.2,21.5c7.3,13.7,15.6,27,23.3,40.4
				c6.3,10.9,15.7,21.9,12.9,35.1c-2.4,11.5-10.2,23.7-14.8,34.6c-10.8,25.6-24.9,49.1-36.7,74.2c-4.8,10.1-10.4,34-25,33.9
				c-11.5-0.1-10.2-12.7-17.8-17c-9.6-5.4-20.5,4.9-28.3,9.2c9.1-15.3,24.9-23.9,42.7-21.1c-21.3-21.2-35.7,7.4-54,13.8
				c-17.3,6-48.1-22.4-62.6-30.5c5.6-9.4,10.6-21,20.2-27.2C682.7,1804.4,693.9,1805.3,703.8,1801.8 M515.5,1995.6
				c2.5-12.2,9.7-19.4,14.2-30.5C535,1978.5,522.6,1986.4,515.5,1995.6 M883.5,2070.5c-1.2,41.1-4.6,82.1-5.8,123.3
				c-0.6,19-3.9,37.1-6.1,55.8c-1.9,15.9-0.9,31.4-10.9,45c-15.7,21.4-46.3,27.5-70.1,35.4c-17.4,5.8-35.1,11.1-52.3,17.5
				c-15.5,5.8-28,14.6-42.7,21.5c-13.2,6.2-27.4,9.8-40.6,16.4c-13.6,6.8-24.3,15.1-38.3,21.2c-16.7,7.3-30.5,20.2-45.3,30.4
				c-13.1,9-26.9,16-38.1,27.3c-10.5,10.6-23.9,15.3-35.8,24.8c-12.6,10-25.9,16.5-39.8,24.3c-28.6,16.1-67.2,43.5-101.6,27.9
				c9.8-12.6,30-24.6,31.5-42c2-22.6-17.6-14.3-29-7c-17.2,10.9-26.8,24.1-39.9,38.6c-15.3,17-34.7,5.6-53.4,0.8
				c12.8-11.5,25.5-23.2,38.3-34.8c10.8-9.8,27.3-20.3,33.9-33.8c4.7-9.6,4.5-22.9-6.9-27.9c-12.7-5.6-27.1,6.2-36.5,13.2
				c-25,18.7-41.4,42.4-57.8,68.3c-8.7,13.8-12.7,12.8-28.8,10c-17-2.9-34-6-51.1-8.1c22.7-23.3,48.1-48.6,66-75.8
				c5.8-8.8,13.4-32.1-4.3-34.3c-7.3-0.9-21.8,14-27.4,18c-24.6,17.6-48.2,39.7-64.5,65.4c-5.4,8.5-7.1,17.9-17.5,18.6
				c-13.6,0.9-38.9-12.1-52.1-16.1c25.1-31.6,50-63.5,79.4-91.4c27-25.6,53.8-44.3,85.4-63.9c33.8-21.1,65.3-45.4,96.3-70.3
				c29.7-23.8,60.7-46.3,88-73c54.6-53.2,103.2-114.3,143.5-179c9.4-15.1,18.3-30.7,26-46.8c7.2-15.1,10.5-33.2,20.2-47
				c3.4-4.8,8.1-8.3,11.1-13.2c2.8-4.7,1.9-10.3,6.2-14.4c10-9.6,28.1-3.8,37.4,2.9c15,10.8,27.1,23.8,43.5,32.9
				c16.5,9.1,34.4,15.7,52.8,20.1c42.8,10.4,85.3,18.9,128.9,25.3c-4.5,16.6,6.5,19.3,10.2,34.2
				C889.8,2029.2,884.1,2052,883.5,2070.5 M471.3,1793c-9.7-14.4-18.4-29.5-27.9-44c-5.8-8.8-13-18.3-8-29.1
				c8.4-18.2,37.9-21.5,53.9-13.5C525.6,1724.4,491.8,1776.1,471.3,1793 M374.9,1463.3c-3.4-28.2,7.4-48.2,32.9-63
				c18.2-10.5,32.8,3.9,30.3,23.1c-3.8,29.2-35,61.8-58.9,77C377.7,1488.1,376.4,1475.7,374.9,1463.3 M371,1382.7
				c7.5-6,27.7,1.6,36.4,2.2c-12,10.5-24,20.9-36,31.4C370.7,1409,364.1,1388.2,371,1382.7 M411.5,1110.5
				c60.7-7.9-9.2,57.2-26.7,67.4C387.6,1164,394.6,1112.7,411.5,1110.5 M572.9,996.6c-8.1,33.4-71.5,69.7-72.1,15.1
				c-0.2-20.4,11.2-18.7,27.9-20.7C538.2,989.9,577.6,977.5,572.9,996.6 M354.2,1048.2c-7.1,18.6-12.8,37.8-19.8,56.5
				c-3.1,8.3-6.7,13.9-12.5,20.5c-4.8,5.5-10.5,6.9-10.4,15.5c6-1.2,10.7-4.8,15.6-8.2c-1.2,17.2-7.3,35.6-10.2,52.7
				c-3.5,20.5-6.5,41-7.5,61.8c-2.4,45.2-2.4,90.3-1.4,135.6c0.5,23.1,0.7,46.1,2,69.2c0.6,11.5,1.3,23,2.7,34.4
				c0.6,4.6,3.9,14.4,1.9,18.7c-8.1,16.9-44-29.6-59.6-22.7c2.2-12.9-2.9-10.1-11.6-16.4c-4.2-3.1-6.9-8.3-11.3-11
				c-1.3-1.4-2.8-2.7-4.4-3.8c-1.8-2.5-3.7-2.2-5.7,0.8c-17.6-10.5-22.1-32.9-31.5-47.9c-4.8-7.7-9.5-8.9-10.4-19.6
				c-0.7-9.3,0.7-18.8,0.3-28.2c-0.4-10.6-1-22.2-4-32.4c-3.4-11.9-8.2-10.9-17.4-17.2c2.8-1.2,4.7-3.3,5.6-6.3
				c-2.9,0.5-11.9,4.2-14.1,1.5c-4.4-5.1,5.9-5.8,8.6-7.9c-11.6-5.1-9.1-9.3-4.9-18.7c1.2-2.7,2.3-6.6,3.3-8.9
				c2.2-4.9,3.5-1.8,4.2-7.9c0.7-5.8-4.5-17.2-6-23.4c-2.5-10.4-4-19.3-1.7-30.1c1.9-8.8,6.8-16.7,7.2-25.7c0.1-2.5-3.8-3.4-3.8-5.8
				c-0.1-3.6,3.3-5.1,4.1-8.4c2.2-8.4,1.2-17.3,5-25.4c3.4-7.2,10.3-16.5,15.1-22.8c3.4-4.3,11.6-9.2,12.5-15
				c0.6-3.8-5.3-3.4-5.1-6.2c0.4-3.9,3.6-5.1,4.5-8c2.5-7.9,3.1-15.5,9.4-21.6c8-7.6,11.5-4.4,11.8-17c0.2-6.1-4.7-7.1-2.1-14.2
				c1.4-3.8,5.6-6.1,8.3-8.8c8-8.1,13.4-15.3,19.1-25.2c5-8.8,13.1-13.9,18.3-21.6c6.7-9.9-3.3-14.8,10.3-17.6
				c-1.9-6.2-4-11.1,1.1-16.4c3.2-3.3,11.4-1.3,14.2-5.1c3.3-4.4-1.6-14.7,3.4-17.6c4-2.3,10,4.8,16.3,1.3
				c4.8-2.7,12-17.5,10.5-22.9c12.4,7,9.3,2.2,15.2-6.8c1.3-2,5.4-2.5,6.5-4.5c2.3-4,1.8-8.2,5.1-11.5c5.5-5.5,14.5-4.1,20.6-8
				c5-3.2,4.7-6.7,8.7-9.8c3.4-2.6,9-3.1,12.3-5.8c6.5-5.3,6.6-10.9,14.7-15.4c9.6-5.4,18.1-10,26.9-17.1c5.7-4.7,11.1-12.9,17.8-16
				c9.2-4.3,16.4-4.6,25.5-10.6c6.5-4.4,12.7-11.6,19.1-15.3c4.8-2.8,8.2-2.2,14.3-3.9c11-3.1,13.6-13.4,22.6-17.6
				c6.1-2.9,15.1-0.2,21.8-1.8c21-4.7,41.7-14.9,62.8-20.5c25.7-6.9,51.6-12.9,77.5-18.9c-23.8,32.2-54.1,61.3-84.9,87
				c-10.1,8.4-65.4,46.7-35.6,63.1c12,6.6,38-14.7,47.6-19.8c19.5-10.4,39.6-18.8,60-27.3c32.9-13.7,75.9-38,112.5-36
				c-22.3,27.3-50.1,49.3-75.6,73.4c-23.4,22.2-58.7,43-47.7,79.3c-32.9-8.4-62.5-18.3-96.7-16.1c-15.3,1-30.7-0.9-45.9,1.3
				c-16.6,2.3-32.2,7.9-48.1,12.8c-12.6,3.8-26.5,4.2-38.1,10.6c-5.6,3.1-12.5,7.5-17.6,11.4c-6.7,5.1-8.2,8.5-13.5,15.3
				C383.6,996.3,365.4,1018.9,354.2,1048.2 M251.3,1504c-1-4.2-2-8-3.1-12.7C258.7,1497.8,258.7,1497.8,251.3,1504 M172.2,1371.3
				c-1.3,1.8-6.7,2.4-8.3,0.8c-2-1.9,3.2-9.4,4-11C169.9,1362.7,174.6,1367.9,172.2,1371.3 M149.7,1323c1.4-5.1,2.8-10.2,4.2-15.3
				c1.7,4.7,9.4,9.9,9.5,14.4C163.6,1325.1,151.3,1323.6,149.7,1323 M154.2,1330c12,7.9,13.3,17.2,13.6,30.9
				C153.5,1356.1,155.5,1342.2,154.2,1330 M363.2,791.3c-1.2,3.3-6.4,13.5-10.1,6.4C351.8,795.4,360.7,792.3,363.2,791.3
				 M359.7,780.2c3-2.7,9,0.7,12.3-1.5c2.4-1.5,1.6-3.1,2.7-4c0.2-0.2,3.4-6.7,4.7-8.1c2.3-2.6,7.4-4.2,10.2-6.5
				c7.9-6.5,12.3-15.1,17.3-23.8c5.9-10.4,7.8-11.6,17.3-16.4c6.6-3.3,11.7-7.3,17-12.9c6.2-6.4,5.7-11,10.8-18.1
				c2.5-3.5,6.1-3.9,9-6.7c3.5-3.3,5.3-8,8.5-11.4c1.4-1.5,5.9-1.5,6.7-2.7c1.1-1.6,1.9-7.9,2.9-9.1c1.9,2.6,3.9,5.2,5.8,7.8
				c7.6-13.3,13.1-24.4,25.8-33.3c13.3-9.3,24.8-23,38.6-31.3c3.1-1.9,9.4-2.7,11.8-5.4c4-4.7,0.5-8.8,3.5-12.8
				c3.3-4.5,9.7-0.9,13.9-2.8c5.3-2.5,6.9-9.6,13.7-8.9c-22.6,26.7-22.3,68.2-23.5,101.5c-0.5,14.4,8.5,21.6-4.8,32.1
				c-11.4,9-27.4,6.3-40.8,12.2c-16.9,7.4-34.9,11.3-52.1,17.8c-17.8,6.7-32.1,18.4-49.2,26.1c-15.1,6.8-25.4,16.5-39.2,24.9
				c-5.1,3.1-13.1,7.7-19.2,3.9C359.5,788.5,354.7,784.7,359.7,780.2 M614.5,556.5c1-3.8,20.2-13.8,25-17
				c7.1-4.9,17.6-16.8,25.6-12.1c2.7-11,13.5-23.3,23-25.6c10.5-2.6,28.6-11.6,38.9-19.5c3-2.3,4-5.7,7.6-7.8
				c6.2-3.8,12.3-1.7,18.3-6.8c0.9-0.8,9.2-14.4,9.5-14.3c0.4,1.5,0.8,2.9,1.1,4.4c6.3-3.5,11.8-6.2,15.7-10.7c0.9-1-4.9-3.6-3-5.6
				c2.2-2.4,7.2,0.3,9.4-2c-7,34.6-1.8,79.1,33.3,96.7c-41.8,4.5-82.5-8-124.8-0.3c-20.2,3.7-40.8,9.7-59.2,19.1
				c-11.3,5.7-25.7,26.1-36.9,16.2C602.4,565.2,609.2,561.5,614.5,556.5 M817.1,456.9c15.6-19.1,39.3-26.6,63.1-19.8
				c27.9,8,16.1,27.5,11.9,49.2c-8.1-11.8-25.5-23.5-40.4-23.9c-21.1-0.5-13.1,17-0.5,23.3c11.5,5.7,31.2,7.3,39.5,17.7
				c8,10.1,4.9,26.6,6.2,38.6c-6.2-0.9-12.5-1.9-18.7-2.8c5.2-27.8-17.8-29.2-39.2-37C817.4,494.3,799.3,478.7,817.1,456.9
				 M887,388.4v25.8c-8.7-4.9-17.4-9.9-26-14.8C869.7,395.7,878.4,392.1,887,388.4 M956.8,594.8c29,7.9,57.8,16.2,85.7,27
				c10.1,3.9,21.2,5.3,31.1,9.8c9.4,4.2,10.9,3.8,7.5,12.1c-9.4,23.2-31.7,19.2-51.2,15.6c-30.6-5.6-60.5-13.2-90.7-20.5
				c-29.5-7.1-59.6-11.7-88.7-20.6c-29.8-9.1-58.9-17.7-89.6-23.7c-9-1.8-79.8-8.2-79.2-15.6c44.6-5.8,90.5-0.1,135.3,0.5
				C863.6,579.9,911.7,582.5,956.8,594.8 M917.5,505.1c0.6-15.9,0.8-31.9,2.8-47.8c13.3,16.4,25.2,21.3,42,5.9
				c16-14.7,19.6-22.3,39.9-8.5c17.6,12,34.3,11.4,52.9,0.9c11.4-6.4,29.7-32.5,41.7-27.1c5.7,2.6,9.9,12.9,15.7,16.7
				c7.2,4.8,18.4,8.1,26.8,9.9c19.9,4.4,31.8-8.4,44.3-22.1c18.1-19.9,17.6-8.3,34.4,5.4c18.7,15.4,34.4,7.9,51.4-5.3
				c10.3,30.3,14.2,63.4,17.1,95.1c1,10.7,4.7,25.9-5,33.5c-6.8,5.3-21.2,5.6-29.4,8.5c-29.2,10.6-57.3,25.5-81.7,44.7
				c-9.5,7.5-17.8,16.6-30.8,14.9c-12.4-1.6-24.5-12-34.4-18.9c-10.8-7.4-21.8-15.9-34.4-20c-7.4-2.4-19.3-1.5-25.8-6
				c-12.1-8.3,2.1-30-0.9-44.5c-2.3-11.1-8.6-34.1-23.9-27.6c-22.7,9.6-9.5,47.3,3,59c-25.5-4.5-53.7-11.1-78.3-19.5
				C925.8,546,916.8,524.5,917.5,505.1 M1345.2,582.7c52.4-14.7,101.3-24.6,155.8-27.3c24.1-1.2,47.5-0.4,71.3-0.2
				c13.7,0.1,24.2-10.9,13.2-23.7c-15.2-17.6-61.5-10.9-82-11.7c-55-2.1-105.4,4.1-157.5,22.2c5.5-10.1,18.7-11.5,27.8-16.7
				c11.1-6.4,18.7-17,23.4-28.8c12.4-30.6-0.1-59.5-13-87.4c25.4,6.8,51.7,21.8,77.2,25.6c5.4,0.8,8.8,0.3,13.5,2.2
				c2.9,1.2,3.8,5.3,7.4,6.2c1.7,0.4,5.9-3.5,7.9-2.9c7.8,2.2,1.6,2.8,6.5,6c3.9,2.5,3.6,5.8,10.7,4.6c3.2-0.5,6.6-5.4,8.3-5.6
				c2.1-0.2,1.6-2.8,4.9-2c5.9,1.4,5.4,9,7.4,12.8c2.1,4-0.9,9.3,5.5,11.5c4.8,1.6,6-3.4,10.1-3c2.5,0.2,7.6,3.8,9.8,5.9
				c7,7,16.7,14.7,26.1,19.2c-0.9-0.9,4.5-3.2,3.2-3.7c-0.9-0.4,4.8,1,4.7,1c5.5,1.2,8.3,9.6,11.1,12.7c5.1,5.6,13,11.5,20.1,14
				c12.3,4.3,11.9-0.8,16.4,13.8c8.7-13.7,12.1,9.3,22.9,11.8c5.6,1.3,5-1.1,10.1,1.8c3.5,2,5.8,8.2,8.5,11.2
				c1.1-4.3,2.3-8.6,3.4-12.9c7.8,14.8,24.7,38.2,43.1,34c0,4-1.7,8.9,1.5,12.3c2.2,2.4,5.7-0.3,7.4,1.1c1.5,1.2,5.1,6.1,6.2,6.9
				c2.2,1.6,6.3,2.7,8.3,4.3c1.7,1.4,2.6,8,4.5,10.4c3.6,4.5,9.8,5.4,12.7,10.8c0.7-5.3,1.3-10.6,2-15.9c5.8,4.5,6.3,8,7.8,14.6
				c2,9.4-0.7,7.2,5.8,11.1c6.3,3.9,9.7,3.5,15.5,10.2c5.7,6.6,5.8,10.7,14,3.8c1.5,5.1,2,11.7,6.1,15.6c3.1,3,15.9,3.1,17.1,10
				c-24-20.3-8.2,10.5,0,0.1c1.7,11.2,9.9,14.8,19.3,22.8c8.7,7.4,10.2,6.9,13.1,19.4c-0.1-0.3,4.4,2.5,4.7,3
				c-8.5,1.2,4.7,10.7,6.9,12.5c1.6,1.3,3.7-1.8,6.4,0.3c3.1,2.3,5.6,7.7,8.1,10.9c6.8,8.7,11.9,16.2,19,23.3
				c7.7,7.7,11.5,17.3,18.9,26.3c8.2,9.9,12.7,21.4,19.6,32.2c6.6,10.3,15.3,18.5,22.9,27.9c12.1,15,16.2,47.9,38.8,48.8
				c-1.3,1.4,0.5,11.6,0.7,13.5c1.1,9.3,0.4,18.2,5.8,26.6c1.3-9.6,6.3-5.9,10.6-0.9c7.2,8.4,0.9,6.3,1.3,14.7
				c0.5,10.3,1.6,2.3,5.6,11.3c3.1,7,4.8,11.6,6.4,19.4c-12.7,1-18.6-9.4-23.3-19.5c-2-4.2-2.7-11.2-6.1-14.5
				c-3.7-3.5-8.8-3.8-12.6-7.7c-7.3-7.5-10.5-19.3-19.1-26.6c-9.7-8.3-11.9-12.2-20-22.1c-8.9-10.9-21.2-18.6-30.6-29.2
				c-9.4-10.6-8.6-4.8-20.4-8.7c-12.5-4.1-32.7-43.4-48.5-28.3c0.6-9.9-14.2-19.2-21.7-22.8c-3.2-1.5-7-0.1-10.3-2.5
				c-3.5-2.5-3.8-7.4-7.3-10.4c0,0-5.4,1.3-6.5,0.8c-2.2-1.1-2.3-5.2-4.2-6.5c-5.5-3.7-12-7.5-17.9-10.6
				c-14.2-7.6-26.7-16.9-40.3-26.1c-11.7-7.8-25.9-22-39.4-26.1c-11.8-3.6-19.3-1.8-28.9-9c-5.3-3.9-3.7-5.3-12.2-7.7
				c-8.1-2.3-12.6-1.1-16.9-9.7c-7.5-15-2.8-44.2-4.2-60.9c-1.5-17.8-3.4-36.1-8-53.4c-5.5-20.5-12.7-31.2-34.7-26.3
				c-43.5,9.6-86.5,18.7-130.2,27c-87.1,16.7-172.7,44-257.8,68.2c-6.5,1.8-42.7,10.1-35.3-8.6c3.4-8.6,26.3-11.8,34-14.6
				C1259.9,610,1302.2,594.8,1345.2,582.7 M1330.6,544.6c-6.4,2.4-12.7,4.8-19.1,7.3v-17.7C1317.9,537.7,1324.2,541.2,1330.6,544.6
				 M1304.1,451.2c5.5,4.5,16.8-6.4,21.5-8.6c8-3.8,18.2-7,27.2-6.2c16.5,1.4,28.6,17.7,25.6,34.2c-5.1,27.9-44.9,41.1-66.9,52
				c-0.7-9.9-3.9-21.8,3-30.3c6-7.4,17.7-6.9,23.3-14.8c14-19.9-23.9-21.7-32.4-5.9c-3.3-10.1-6.7-20.2-10-30.3
				C1303.5,440,1300,447.7,1304.1,451.2 M1343.3,396.5c-7.9,5.1-15.8,10.2-23.7,15.3C1315.7,394.1,1329,391.8,1343.3,396.5
				 M2062.8,1011.3c-10.3,4.9-12.9-6.8-20.4-7.4C2051.2,998.6,2051.2,998.6,2062.8,1011.3 M2104.8,1268.6
				c1.3,16.9,0.3,34.1,2.5,50.9c1.7,12.8,6.9,24.8,7.5,37.7c1.2,28.4-8.4,57.4-27.8,78.2c-18.3,19.7-44.6,36.7-69.3,45
				c-11.2,3.7-22.8,12-33.6,15.1c-12,3.4-23.4-4-33.3,9.2c-6.6-56.7-1.8-115.9-2.3-172.9c-0.5-57.1,0.1-114.3-9.6-170.8
				c-8.6-50.3-25.6-107-56.9-148.1c-12.7-16.7-28.4-30.4-44.9-43.2c-8.6-6.7-17.1-13.8-26.7-19c-14.7-8.1-27.2-7-43.1-9.3
				c-22.8-3.3-44.1-6.1-67,0.3c-21.3,6-44.9,12.8-64,23.2c-19,10.4-41.2,14.6-60.9,23.9c-13.5,6.3-41.4,27.4-56.3,23.6
				c-14.4-3.7-35.8-28.2-45.1-39.2c-11.8-14-21.5-30.3-32-45.4c-3.7-5.3-11.2-13.5-12.1-20.3c-1.7-11.8,3.1-8,14.4-6.6
				c29,3.4,56.3,8.8,84.1,17.9c13.8,4.5,40.9,22.9,54.8,11.9c21.1-16.8-11-45.7-22.7-55.4c-20-16.5-43.3-28.8-64.7-43.5
				c-22.7-15.6-52.7-32.3-67.3-56.3c42.7,12.6,85.3,27,126.7,43.2c18.9,7.4,37.7,15.3,55.5,25.1c10,5.5,30.2,20.5,42.2,13.4
				c26.2-15.6-33.9-61-42.6-70.2c-13.5-14.4-26.7-28.7-41.5-41.7c-10-8.8-25.7-15-30.3-28c16.6,6,30,17.8,45.5,25.7
				c8.1,4.2,15.5,6.6,24.5,7.9c9.6,1.4,10.7,2.9,18.3,6.7c5.9,3,11.9,6.9,18.5,8.9c4.7,1.4,12.9,1.7,17,4.4c2.1,3,4.3,5.9,6.5,8.8
				c2.5,0.7,5,1.6,7.4,2.5c3.6,3.2,5.8,7.7,9.3,11.1c25.7,24.3,60.1,41.7,89,62.1c27.3,19.3,56.2,36.7,82.4,57.7
				c30.2,24.2,61.4,50.2,87.1,79.2c14.5,16.4,26.4,35,38.6,53.1c8.8,13.1,21.6,24,29.3,37.6c16.6,29.5,30.4,61.4,48.3,90.5
				C2078.3,1203.1,2102.1,1232.5,2104.8,1268.6 M1859.7,1439.9c5-20.5,33-44.4,50.9-53.5C1901.6,1408.8,1877.6,1424,1859.7,1439.9
				 M1906,1511.4c-15.3,31.7-82.5,35.3-73.3-11.6c4.5-23,23.4-37.1,39.7-52.1c7.5-6.9,25.9-31.8,37.6-27.8
				c-0.5,17.9-1.6,35.8-1.6,53.7C1908.4,1485.5,1911.4,1500.1,1906,1511.4 M1886.5,1146.1c6.2,13.9,12.4,25.5,0.9,38
				c-5.2,5.6-22.1,17.9-29.7,15.2C1833.1,1190.5,1879.9,1152.4,1886.5,1146.1 M1738,1022.3c5.9-0.3,11.7,0.6,17.5,0.2
				c5.8-0.4,6.4-1.4,11.8-0.7c0.6,0.8,1.1,1.7,1.7,2.5c0.7,5.6,3.7,6.2,8.7,1.8c7.1,1.6,11.7,2.6,18.5,6.5
				c-18.3,13.2-40.5,28.5-63,32.9C1697.9,1072.5,1707.7,1024,1738,1022.3 M1194.8,1318.7c-3.7,7.4-14.2-11.1-16.9-14.5
				C1182.8,1304.2,1198.5,1311.2,1194.8,1318.7 M1479.5,1124.2c27.5-16.1,60.2-30.2,89.8-42.1c5.2,25-20.2,57.4-35.8,74.5
				c-12.6,13.9-27.9,28.2-45,36.2c-18.5,8.6-38.7,4.8-37.8-19.4c0.3-8.8,2.3-23.1,5.9-31.1
				C1461.3,1131.9,1470.1,1129.7,1479.5,1124.2 M1107.4,668.7c4.1-0.2,48.6-6,48.4-0.5C1155.1,684.9,1111.9,671.8,1107.4,668.7
				 M792.6,990c23.5-29,61.5-60.3,62-100.8c0.8-59.6-65.4-29.9-98.7-27.4c17.6-17.3,106-89.8,53.7-115.6c-15-7.4-36.4-0.2-51.5,3.7
				c-26.8,6.9-51.7,18.8-78,27.1c18.8-20,51.3-42.7,50.2-73c-1.3-36.9-31.6-28-57.7-22.5c-10.1,2.1-55,20-63.4,7.8
				c-3.1-4.4,1.9-10.1,3-14c1.9-7,1.3-9.4,1.4-16.6c0.1-14.4,9.7-33,1.9-46.4c-1.8,3-3.3,6.2-4.6,9.5c-2.6-7.8-0.8-16.1-3.4-23.9
				c65.3,16.7,131.8,25.9,197.6,40.1c33.3,7.2,64.6,19.7,98.4,25.2c34,5.6,67.5,14.3,101.6,19.7c31.1,4.9,60.9,13.1,91.7,19.3
				c30,6.1,60.8-7.3,90.1-14.1c65.7-15.2,131.3-30.7,197-45.5c75.9-17,154.8-31.5,227.4-59.9c1.4,37.8,4.4,75.5,9.1,113
				c-32.1-15.2-79.7-34.9-112.1-7.8c-13,10.8-17,29.6-11.8,45.5c5.6,17.3,22.7,25.4,34,38.5c-34.3-8.8-122.9-70.8-138.7-8.1
				c-11.1,44.3,43.2,72.9,69.7,97.8c-26.4-5.2-61.7-26.2-77.2,7.6c-13.4,29.3,2.7,61.2,19.2,85.3c8.9,13.1,19,25.4,28.5,38.1
				c5,6.7,9.9,13.5,15.2,20c5.3,6.5,15.3,13.4,19,20.4c7.5,14.2-7.6,15-19.4,20.2c-14.7,6.4-27.2,17.1-40.6,25.7
				c-30.7,19.6-57.5,37.8-93.8,44c-37.3,6.4-73.3,13.2-110.1,22.2c-36.7,9-66.7,17.6-104.3,6c-17.1-5.3-31.1-10-49.2-9
				c-19.1,1-30.2,0.1-45.9-11.8C935.5,1079.7,862.3,1038,792.6,990 M671,939c26.1-13.1,52.3-26.2,79.3-37.5
				c22.3-9.3,56.2-20.1,80.6-16.1c-6.9,17.7-19.4,32.2-32.9,45.2c-11.9,11.5-26.8,28.9-41.2,36.9c-13.1,7.3-28.3-4.3-41.2-9.1
				C701.3,953.2,681.8,950.7,671,939 M677.5,1005c13-5.4,40.9,12.7,52.7,17.4c23.2,9.3,46.6,18.9,67.1,33.5
				c-25,28.9-53.3,55.3-86.9,73.8c-22.1,12.2-59.4,26.2-80.3,4c-26.2-27.8,5.3-84.6,23.9-108.4c0.6,4.1,1.2,8.2,1.9,12.2
				C661.7,1028.1,666.3,1009.7,677.5,1005 M1154.6,1252.1c-16.2,3.4-21.7,0.3-32.4-12.1c-7.2-8.4-14.3-17.1-22.5-24.7
				c-8.3-7.7-28.9-26.3-2.7-15.6c23.9,9.8,44.3,14.6,70.6,10.8c30-4.4,58-17.1,87.7-23.5c-16.2,14.2-32.4,28.5-48.6,42.7
				C1189.4,1244.8,1176.4,1247.5,1154.6,1252.1 M1158.3,1366.4c-35.5,26.7-107.1,23.8-83-35c3.7-8.9,8.8-17.3,14.7-24.9
				c2-2.5,5.5-7.8,8.3-9.5c7.9-4.8,5.7-5.3,13.2,2.6C1118.1,1306.4,1169,1362.4,1158.3,1366.4 M1147.8,1264.2c3.3-1.1,17-9,20.1-4.6
				C1171,1264,1144.2,1279.4,1147.8,1264.2 M1406.4,1671.8c-8,19.1-71.9,46.8-60,8.3c5.3-17.1,10.2-30,30.2-31.3
				C1388.1,1648,1413.5,1655,1406.4,1671.8 M1521.1,1412.9c10.5-15.3,45.3-36,60.1-13.2c7.1,11-10.2,16.6-20.7,13.8
				c-5.6-1.5-10.2-4.9-16.4-5.1C1536.3,1408,1528.6,1414.2,1521.1,1412.9 M1549,1428.1c-7.2,7.2-50.3,43.5-57.3,37.9
				C1505.8,1445.9,1522,1423.4,1549,1428.1 M1478.5,1795.5c-15,0.8-7.5-21.7-6.1-30.8C1476.1,1771,1495.2,1794.5,1478.5,1795.5
				 M1516.6,1755c-4.8-8.6-17.9-21.5-15-32.6c2.3-8.5,22.7-19.9,31.2-15C1544.2,1713.9,1527.7,1756.4,1516.6,1755 M1872.2,1664.6
				c-6.4,22.1-13.1,16.4-33.2,20.7c-20.2,4.3-34.1,21.4-51.9,30.6c6.2-13,10-28.9,20.3-39.5c2.4-2.4,17-7.3,8.7-12.9
				c-7.3-4.9-17.8,11.1-20.9,15.5c-15.4,21.5-26.1,47.8-35,72.6c-4.4,12.2-7.9,24.6-9.9,37.3c-1.8,11.4,0.1,23.3-1.7,34.4
				c-3,17.9-27.3,17.9-41.9,22.6c-13.2,4.2-26.4,8.7-40.1,10.9c-11.9,1.9-24.2-1.6-35.7,0.7c-12.5,2.5-18.1,9.9-32.3,8.3
				c-11.6-1.4-22.4-6.7-34.1-7.2c-11-0.5-21.9,3.3-32.8,0.2c-11-3.1-10.5-4.3-8-15.1c1.6,2.9,3.1,5.8,4.7,8.7
				c4.4-3.4,7.4-13.9,10.1-18.8c4.2-7.6,7.6-10.3,6-19.7c-2.3-14-14.9-24-17.8-37.3c-3-13.9,7.3-25.3,13.4-36.9
				c8.3-15.9,8.2-27.7,1.2-44.1c5.3,1.4,10.5,2.8,15.8,4.2c-7.2-15.6-31.6-9.3-43.9-4.7c-6.2,2.3-15.9,11.5-22.5,11.2
				c-9.1-0.3-13.8-12.3-17.8-18.9c-11.3-19.1-24.2-37.9-37.6-55.6c-3.7-4.9-8.5-8-7.2-13.5c1.1-4.7,11.6-11.4,15.1-14.3
				c12.8-10.9,29.2-16.9,41.3-28.3c18.2-17.3,39.3-29.6,57.9-46.6c19.4-17.6,39.4-33.8,59.7-50.5c20.5-16.9,38.3-36.8,58.6-53.8
				c5.3,9.6,15.5,43.7,27.2,46.4c13.6,3.1,13.2-13,12.5-22.7c-1-13.8-8.6-27.2-9.5-40.4c-0.9-14.1,12.7-20.4,22.9-28.6
				c15.8-12.6,50.8-41.3,32-64.9c-16.2-20.3-68.9,18.7-83.5,30.4c-12.4,10-21.9,19-35.8,26.8c-9.8,5.5-26.2,26.8-37.8,24.8
				c-13.8-2.3-19.2-17.4-36-16.9c-16.5,0.5-30.5,12.3-40.7,24.3c-23.1,26.9-31,63-52.1,91c-10.4,13.8-23.8,25.3-35.1,38.4
				c-12.4,14.4-15,30.9-27.2,45c-34.9-46.5-72.9-90.5-109.7-135.4c-18.4-22.4-36.4-45.2-54.4-67.9c-6.7-8.5-14.3-16.5-20.5-25.5
				c-8.5-12.3-6.9-22.1-10.3-35.8c-1.5-6.1-8.4-13.3-6.5-19.1c2.5-7.8,19.9-13.9,26.2-17.1c25.7-13,48.9-29.3,72.8-45.2
				c44.3-29.4,89.1-57.1,136.2-82.2c-0.8,10.8-7.9,22.1-3.1,32.9c2.2-6.3,5.7-34.1,14.1-35.3c-1.6,0.2-0.3,35.7,1,40.8
				c3.9,15.1,15,25.5,31,25.4c30.5-0.2,57.8-33.3,74.7-55.3c11.5-14.9,22.5-32.2,26.5-50.8c3.6-16.7-0.4-28.3,17-36.8
				c35.6-17.4,71.6-31.6,109.7-40.8c-1.7,16.4-6.5,36.6,8.5,48.5c16.5,13,38.1,1.4,53.6-7.2c15.4-8.5,39.1-32,57.1-25.2
				c17.8,6.7,30.1,29,40.1,43.8c8.8,13,18.3,22.4,8.1,37c-11.4,16.3-18.8,32.2-27.9,49.8c-3.5,6.8-6.8,11.2-4.4,18.2
				c0.8,2.3,9.9,15.7,12.4,17.6c15.8,12.3,37.2-11.1,48.5-20c4,38.3,4.9,76.4,6.5,114.7c1.2,28.1,12.1,55.8-11,76.3
				c-23.1,20.5-42.3,41.6-56.4,69.4c-7.5,14.9-14.2,30.1-22.4,44.7c-5.4,9.7-16.9,24-9.9,35.4c7.4-7,9.6-17.7,15.8-25.6
				c3.7,16.4,7.4,34.6,24.8,41.6c20,8,39.8-5.8,57.5-13.6C1896.9,1579.4,1884.6,1622.1,1872.2,1664.6 M1851.8,1715
				c-13.7,29.3-26.1,64.6-51.4,86.2c-5.6,4.7-29.2,23.2-38.2,20.1c-7.6-2.6-3.4-18-2.1-24.7c6.7-33.5,18.4-54.6,45.6-76
				c11.3-8.9,25.7-20.2,40.2-22.4C1861.6,1695.9,1857.1,1703.7,1851.8,1715 M2238.6,2410.4c-35.6-48.3-85.8-85.9-133.3-122.2
				c-21.5-16.4-45.2-28.8-66.9-45.2c-24.6-18.6-49.5-36.5-77-50.6c-52.2-26.6-109.1-45.1-158.3-76.5c-24-15.3-50.3-30.1-72.9-47.3
				c-9.9-7.6-18.7-17.2-27.6-25.9c-8.3-8-26.2-19.7-29.5-31.5c13.9-2.3,21.7-15.7,34.1-17.1c4.1-0.5,29.6,6.3,26.1-6.1
				c9.3-0.2,10.3-0.4,18.1-2.4c3.2-0.8,7,0.5,10.3-0.7c5-1.8,8.4-6.8,13.4-8.8c3.6-1.4,16.8,0.2,18.8-1.6c5.5-4.7-0.3-4.3-3.6-10.1
				c10.7-0.3,18,5.1,28.7-0.6c3.3-1.7,6-5.8,9.2-7.8c5.6-3.7,7.6,2,11.4-5.6c3.6,10.6,3.5,7.7,12.1,4.5c8.6-3.1,14.8-5.3,24.6-6.1
				c23.4-1.9,46.9,1,70.2-0.7c8.5-0.6,15.8-2.5,24.3-1.4c7.5,1,5.2,6.2,11.4-0.8c1.4-1.6-3.2-6.1-1-8.4c1-1,4.2-0.3,5.4-0.8
				c10.9-4.8,10.9,1.9,12.9,10.5c6.4-1.5,12.9-2.9,18.5-6.6c-2.8-2.5-7.5-5.3-4.8-9.8c9.2,3.5,15.2,1.9,10.6,12
				c9.3,3.1,11-0.9,19.3-1.8c4.9-0.5,11.8,2.5,15.9-1.4c4.5-4.3-2.6-9,5.6-12.7c1.7,0.9,2.9,2.2,3.8,3.9c4.4,1.3,3.6,3.1-2.4,5.2
				c16.2,8.4,12.4-1,19.2-10.9c1.6-2.3,8.6-9.4,11.8-6c4.9,5.2-5.1,6.9-2.9,12c3.7,9,16.5-2.5,20.5-7.1c3-3.4,4.2-10,7.4-12.6
				c4.5-3.6,10.9,1.9,16.5,1c25.6-4.5,49.7-38.9,30.5-61.9c-5.2-6.2-9.6-5-15.7-8.9c-6.1-3.9-9.5-10.5-14.4-16
				c-11.2-12.6-24.9-22-40.5-28c-36.3-14-75.3-24.2-113.4-31.7c-17.6-3.5-36.4-8.8-54.4-8.8c-10.6,0-26.6,8.3-36.6,4.3
				c-19.3-7.7,9-47.1,13.7-59.8c13.8-37.4,24.1-77.3,30.9-116.5c1.3-7.7,0.8-17.6,3.6-25c3.2-8.4,3.9-7.2,10.7-7.9
				c12.3-1.2,25.7,5.2,38.5,3c14.2-2.5,29.5-1.3,43.8-5.7c6.6-2,12.7-4.2,17-9.8c1.4-1.7-0.2-3.3,0.7-4.5c0.3-0.4,5.2-5.7,5.3-6
				c0-2.7,0.2-5.4,0.7-8.1c5,4.1,2.5,12.8,10.9,13c1.5-9.2,1.5-11.1,7.6-16.2c-0.5,0.4,4.6-3.9,3.9-3.4c0.3-1.6,0.9-3.2,1.8-4.6
				c2.8-1.4,5.8-2.1,9-2.2c6.5-6.7,3.8-10.3,3.8-19.3c5.3,2.7,10.5,5.5,15.8,8.2c1.3-26.8,17.6-41.5,28.4-63.2
				c4.6-9.3,9.3-16.5,10.4-27.6c0.6-6.4-1-12.1,1.6-18.2c2.4-5.5,7.8-8.5,10.1-14.5c4.5-11.8,1.1-26.9,1.4-39.1
				c0.3-17,2-33.9,2.6-50.9c1.1-33.3-2.3-67.6-7.3-100.6c-2.4-15.8-6.4-31.1-9.5-46.7c-2.6-12.8-8.8-24.8-11-36.8
				c-0.9-5,0.5-9.4-1-14.9c-2-7.2-5.3-14.3-7.7-21.4c-5.7-16.5-11.4-33-17.8-49.3c-12.5-31.5-27.1-62.1-40.9-93.1
				c-13.3-29.7-24.4-60.4-41.7-88.2c-17-27.4-35.3-54.3-54.1-80.4c-19.5-27.3-44.2-50.7-63.2-78.2c-35.6-51.7-85.2-94.3-137.1-129.4
				c-107.1-72.6-222.8-145-351.2-169.9c-19.4-3.7-39-6.3-58.7-6.8c-12.2-0.3-32.5,5.6-44.1,1.5c-13-4.6-11.8-19.2-15-30.6
				c-4.2-14.7-13.6-24.3-24.3-34.7c-11.3-10.9-21.5-23.7-35.5-31.1c-14.2-7.5-31-10.3-46.8-12.6c-14.1-2-35.1-0.1-48-6.3
				c-11.7-5.6-5.9-11.4,5-6.6c0.8-4.8,1.5-8,4.6-11.7c1.6-1.9,8.9-4.5,9.1-6.3c0.2-2.1-6-7.9-6.8-10.5c-1.9-5.7-0.8-13.6,1.4-18.9
				c11.1,9.8,14.3,14.2,26.6,4.8c5.2-4,6.8-5.7,12.9-7.7c1.6-0.5,5.3,1.1,6.7,0.2c5.5-3.6,0.4-2.7,3-7c-0.7,1.1,3.9-10.2,3.7-7.9
				c0.6-6,2.3-4.2-1.3-11.6c-7.1-14.5-25.2-15-16-31.5c3.6-6.5,6.8-5.8,7.9-15.3c0.5-5.1-0.1-10.9-0.2-16c0-10.5,1.9-17.9-7.9-23.3
				c-9.5-5.2-18.2,0.5-22.1-12.3c-4-13.4,0-30.6-14.5-39.8c-10.6-6.7-26-1-37.7-4.3c-11.8-3.3-22.6-15.3-34.5-6.1
				c-8.5,6.6-13,22.7-29,14c-7.2-3.9-11.2-17.2-15.7-24.6c-7.2-11.8-13.1-16.1-24.2-4.6c-6.9,7.1-21.4,24.4-22.3,34.2
				c-1,10.8,8.5,15.4-3.4,21.8c-11.8,6.4-18.5,1.7-28,14.7c-9.5,12.9-2.2,20-13.2,32.3c-13.8,15.4-21.1,22-20.9,42.7
				c0.1,14.2-12.4,26.5-5.1,40c8.2,15.1,32.2,21.4,46.7,27.5c-4.8,9-11.5,14.7-5.8,23.9c5.1,8.3,19.6,10.1,28.6,8.6
				c6-1,6.3-0.1,11-4.4c3.1-2.8-1.2-6.3,5.3-7.8c6.8-1.6,17.7,11.7,22.2,15.1c-9.9,12.9-37.1,15.3-51.5,21.8
				c-8.8,4-16.8,9.9-25.8,13.4c-8.1,3.2-18,2.5-25.3,7.5c-12.7,8.6-18,30-25.8,42.5c-8.8,14.2-17.3,20.8-34.2,23.7
				c-21.1,3.7-38.1,5.2-57.7,14.3c-24,11.2-47.7,23-71.2,35.1c-38,19.5-73.4,39.5-108.7,63.1c-36.9,24.7-72.9,50.4-108.5,76.2
				c-35.3,25.5-64.9,56.8-95.5,87.6c-24.8,24.9-46.5,51.8-71.1,76.7c-29.1,29.4-50.5,66.5-77.5,97.7c-14.8,17.1-28.9,33.8-38.2,54
				c-7.5,16.3-20.6,32.3-29.3,49.4c-11.1,21.9-21.7,43.4-34.2,64.5c-5.1,8.7-11.2,16.1-16.6,24.4c-6.9,10.6-6.5,20.8-8.4,33.1
				c-1.9-3-3.9-6-5.8-8.9c-3.5,7.7-7.8,15.3-10.9,23.2c-2,5-1.6,12.2-3.6,16.6c-2.5,5.5-5.5,4.8-8.5,9.4c-3.3,4.9-4.3,11.6-7.8,16.8
				c-14.9,22.9-20.7,51.9-28.4,77.9c-10.3,35-8.7,75.2-8.1,111.3c0.6,38.1,2.7,76.2,8.4,113.9c5.2,34.1,16.3,66.9,33.7,96.8
				c15.1,26.1,36,41.3,62.8,54.6c12.3,6.1,23.7,4.2,36.6,5.2c14.1,1.1,23.7,4.9,38.7,1.5c7.2-1.6,10.6-6.8,16.3-8.6
				c3.5-1.1,5.4,0.7,8.8,0.3c4.8-0.6,14.9-3,20.2-2.4c16.3,1.8,13.6,26.5,15.2,39.1c2.5,19.4,4.3,39,7.6,58.3
				c7,40.6,22.2,78.5,31.1,118.4c-41.5,5.1-77.1,12.8-115.9,28.5c-39,15.7-78.4,21.1-119.5,28.9c-38.4,7.3-75.3,21-106.1,45.8
				C8,1878.6-7,1892.1,3.6,1911.3c6.8,12.2,19,15.3,29.5,22.4c2.1-2.7-4-8.4-5.2-10c8.9,1.8,8.6,5.9,15,9.5c5.6,3.1,10.3,3,16.5,5.2
				c15.1,5.4,22.5,18.9,37.4,22.7c4.7,1.2,10.8,4.1,15.6,4.9c5.8,1,10.1-1.5,15.9-0.5c3.2,2.1,6.6,3.6,10.2,4.5
				c2.4-1.1,4.8-2.3,7.1-3.5c8.4,0.9,13.6,6.2,20.4,10.5c0.5-5.5-0.2-11.1,5-14.7c2,5.3-1.2,8.7,4.3,12.3c7,4.6,16.2-1.2,22.4-4.1
				c1.8,17.7,42.7,16.6,55.7,16.4c18-0.3,35.9-7.5,54-3.5c9.2,2,19.1,4.1,28.3,6.8c11.1,3.2,24.5,6,35.4,10
				c4.3,1.6,9.6,6.7,14.3,6.3c3.7-0.3,4.7-5.7,8.9-5.5c4.8,0.2,6.5,5.6,10.7,7.2c6.3,2.4,12-2.2,18,0.1c2.1,0.8,5,4.4,7.8,5.6
				c4.2,1.8,12.4,1.8,17,2.7c6.6,1.2,12.4,0.4,18.1,0.8c4.5,0.3,4.4,3.4,6.6,3.6c2.5,0.2,6.8-8.3,10.2-9.6
				c4.9-1.8,13.7,2.5,18.7,3.3c-36,48.8-79.4,91.9-126.4,129.6c-50.7,40.7-102.7,81.4-157.1,117.1c-49.4,32.4-97.2,60.5-135.5,106.2
				c-32.3,38.6-83.7,79.9-75.8,135.8c7.9,55.9,68.6,78.6,117.3,89.3c61.2,13.4,124.2,8,185.5,15.6c26.2,3.2,55.2,1.5,81.6-1.2
				c31.1-3.2,57.8-23.5,84.5-38.2c48.1-26.4,89.2-61.7,136.6-88.9c59.3-34.1,118-70.2,183.1-93c30.3-10.6,61.4-22.7,85.8-44.6
				c3.6-3.3,6.3-8.2,10.4-10.8c7-4.6,8.8,0.1,12.9-1.3c3.1-1.1,6.1-4.4,8.8-5.4c6.8-2.6,9.9-1.5,17.5-1.5
				c-6.6-3.8-12.6-13.5-5.8-21.5c11.7-13.6,13.7,8.1,18,13.2c3.7-4.8,2.3-9,1.3-14.4c3.1,2.1,6.3,4.1,9.4,6.2
				c-2.2-10.5-0.1-20.1,5.5-29.3c5.1-8.4,6.4-7.2,7.8-18.9c15.9,14.5,19-20.7,20.5-33.6c1.4-12.5,0-21.4,8.2-32.3
				c8.8-11.7,22.2-19.1,33.4-28.2c17.7-14.4,37.1-32.5,61.5-18.7c19.3,10.9,29.8,37.5,47.8,51.2c11,8.3,22.5,9.2,29.5,22
				c5.7,10.4,7.5,22.9,12.8,33.6c12.9,25.9,31.5,55.6,52.8,75.5c19.8,18.5,45.1,18.4,68.3,29.9c22.9,11.4,46.7,23.7,70.9,31.9
				c26.5,9,55,12.8,80.8,23.7c13.3,5.6,25.1,14.1,38.5,19.4c14.4,5.8,29.6,9.9,44.2,15.2c57.9,21,114.6,46.8,175.4,58.5
				c27,5.2,52,19.2,79.1,22.2c11.7,1.3,21.2,2.9,32.6,5.8c17.9,4.6,14.1,7,20.7,21.9c10.8,24.6,37.3,10,57.7,10.6
				c32.7,1,64.9-4.3,97.5-4.5c57.1-0.4,112-6.9,167.2-25.6C2221.6,2518.3,2284.6,2473,2238.6,2410.4"/>
			<path class="st4" d="M1579.1,492.1C1579.9,492.8,1581.7,493.3,1579.1,492.1"/>
			<path class="st4" d="M574.1,1537.8c12.4-12.6,65.1-10,69.1,12.4c4.4,25.1-42.7,62.9-59.9,73.5c-22.2,13.7-49.3,16.2-45.3-18.1
				C540.9,1579.8,556.5,1555.7,574.1,1537.8 M617.7,1512c1.6,6.9-10.2,4.6-13.5,2.9C602.6,1511.7,616,1505,617.7,1512 M526.7,1557.9
				c10.5,0.9,22.6-15.9,30.5-21.7c3.5,5.4-19.6,35.2-22.2,42c-6.4,17-9.9,38.4-1.2,55.4c25.3,49.5,90.1-21.2,106.3-45.9
				c11.3-17.3,19.2-38.7,3.2-55.6c-5.7-6-15.1-7.7-20.4-13.4c-7-7.5-1.5-17.3-15.5-15.6c-9.7,1.1-21.3,9.9-30.7,13
				c-11.3,3.8-21.5,7.7-31.4,14.8C543.1,1532.5,513.7,1556.8,526.7,1557.9"/>
			<path class="st4" d="M1270,1574.5c-6.6,34-40.3,68.9-75.8,70.2c-35.3,1.3-46.8-35.6-40.5-65.1c5.3-25.1,27.1-68.8,58.1-64
				C1236.1,1519.4,1275.6,1545.4,1270,1574.5 M1247.5,1517.7c-22.4-17.3-53.3-25.3-79.3-11.6c-8.5,4.5-42.5,24.4-32.1,37.8
				c13.9-10.8,26-25.8,44.1-29.4c-3,14-20.4,26.7-26.6,40.3c-7.2,16-11.1,34.2-9.9,51.8c2.1,31.2,23,55.5,55.4,51.2
				c29.7-3.9,55.6-26.7,69.7-52.2C1287.7,1571.6,1277,1540.6,1247.5,1517.7"/>
			<path class="st4" d="M1039.5,1651.8c-15.9,23.6-40.3,45.8-68.4,53.1c-36.4,9.4-26.2-20.6-15.3-42.2c9.6-19.1,26.1-51.9,51.2-51.7
				c8.5,0.1,24.4,4.2,31.9,8.7C1053.7,1628.7,1047.9,1639.4,1039.5,1651.8 M1005.5,1600c5.7-6.4,31.1-33.7,34.5-12.4
				c7.3-8.4,1.5-15.4-7.8-16.3c-11.2-1.1-23.5,11.4-31.6,17.6c-16.7,12.8-29.5,25.9-40.6,43.8c-12.2,19.8-43.3,64.4-16.1,84
				c29.4,21.2,72.2-17.9,90.6-38.1c11.8-12.9,27.4-31.9,22.9-50.8C1052,1604.5,1024.9,1602.1,1005.5,1600"/>
			<path class="st4" d="M880,1219.6c-16.5,18.8-49.9,46.1-77.4,42.9c-25.1-2.9-15.3-31.1-6.4-44.8c13.4-20.5,31.3-39.8,57.1-40.9
				c11.2-0.5,25.6-0.3,34.3,8.2C899.4,1196.6,888.7,1209.7,880,1219.6 M878.3,1167.5c-19.3-6.7-26.9-9.2-45.6,1.4
				c-15,8.5-28.4,20.5-38.7,34.2c-15.5,20.4-31,66.4,8.6,72.1C846.2,1281.4,949.7,1192.1,878.3,1167.5"/>
			<path class="st4" d="M937.6,1284.7c-12.5,12.8-28.2,23.2-46,26.8c7.5-16.8,24.4-53.6,44.4-58.7c9.2-2.4,19.7,0.7,18.9,11.2
				C954.4,1271.5,942.6,1279.6,937.6,1284.7 M953.7,1240.2c-10.4-5.2-7.1-8.7-19.2-4.7c-9.5,3.2-21.5,8.8-29.4,15.2
				c-4.3,3.5-17.8,15.9-16.1,22.2c3,11.5,13-6.1,15.6-9.5c4.5,3.7-18.6,36.7-20,42.2c-5.1,20.3,10.8,22.4,26.4,15.8
				C932.1,1312.4,994.4,1260.5,953.7,1240.2"/>
			<path class="st4" d="M1261.9,1785.1c1.6-13.4,3.8-27.6,16.1-35.2c11.1-6.8,22.6-5.8,24.3,8.1c1.5,12.9-11.2,35.9-21.4,43
				C1266.5,1810.9,1263.8,1798.7,1261.9,1785.1 M1280.3,1815.7c29.3-17.2,47.8-95.9-6.2-73.8
				C1243.3,1754.4,1254.6,1830.7,1280.3,1815.7"/>
			<path class="st4" d="M1029.7,1489.3c4.6-9.5,9.9-12.6,19.3-16.8C1042.7,1478.5,1036.3,1483.9,1029.7,1489.3 M1036.5,1466
				c-6.6,6.7-21.9,16.8-19.7,28.3c1.9,10.4,9.9,9.8,17.2,6.6c15.2-6.8,23.6-36.7,39.5-39.5C1055.8,1450.2,1051.7,1450.7,1036.5,1466
				"/>
			<path class="st4" d="M1038.8,872.6c0.8,31.8,1.6,63.6,2.3,95.4c0.2,11.2-2.4,27.1,0.9,37.8c1.5,4.7,14.9,25.2,19.6,26.5
				c16.6,4.6,10.7-37.1,10.8-47.3c0.4-34.6-0.1-69.3-0.2-104c-0.1-17.9,5-167.6-18.2-166.8c-4,0.1-13.8,17.2-15.3,20.7
				c-4.7,10.8-2.9,26.8-2.8,38.2C1036.2,806.3,1037.9,839.5,1038.8,872.6"/>
			<path class="st4" d="M1179.1,965.4c1.3,8.8,0.6,23.5,10.5,28c8.6,4,11.9-0.8,15.1-8.1c7.4-17,4.7-42.9,4.6-60.4
				c-0.3-34.7-4.2-69.3-6.9-104c-1.2-15.2,1.3-30.4-0.6-46.3c-0.8-7-1.7-35-14.6-33.7c-11.7,1.2-10.6,30.6-11.3,38.2
				C1170.7,842.1,1169.8,902.4,1179.1,965.4"/>
			<path class="st4" d="M1731.1,1689.6c-5,25.3-85.8,113.5-106.2,64.2c-12.1-29.3,14.1-61.1,34.5-78.1
				c12.6-10.5,28.4-20.8,45.6-17.6C1719.7,1660.9,1734.2,1673.5,1731.1,1689.6 M1689.3,1644.2c-5.7,1.4-53.5,34.9-53.9,34.4
				c-4.1-4.2,26-49,29.1-53c25.5-32.3,42.5-7.8,58.4,17.6c-3.4-15.2-12.8-37.2-28.4-43.6c-19.7-8.1-35.1,11.9-44.6,26.3
				c-13.4,20.3-20.8,42.4-28.3,65.3c-3.6,10.9-7.6,20.9-13.6,30.7c-5.9,9.7-16.3,20.5-14.8,32.8c8.4-4.7,12.9-13.9,18.3-21.5
				c5.9,2.4,3.9,21.3,5.1,26.2c3,12.1,11.3,21.6,24.1,23.7c23.9,3.9,49.6-18.2,65.6-33.2c16.8-15.8,34.9-37.4,34.8-61.7
				C1740.8,1662.8,1715.8,1637.9,1689.3,1644.2"/>
			<path class="st4" d="M1754,1237.2c-13.5,20.7-37.3,45.5-62.4,50.3c-18.4,3.5-30.6-10.1-23.2-28.6c6.3-15.6,27.6-25.4,41.6-32.3
				C1721,1221.2,1772.7,1208.5,1754,1237.2 M1744,1203.3c-27.7-1-50.1,19-70.8,35c4.7-18.4,15.2-38.4,30.1-50.3
				c20.2-16.3,39.4-6.2,60.7,2c-5.3-16.6-28.8-22.5-43.9-20.2c-19,3-32.7,19.2-42.3,34.9c-11.5,18.7-15.4,40.8-28.9,58.3
				c-6.2,8-44.4,38.1-35.8,50.4c14.3-15.2,28.6-30.3,42.9-45.5c3.7,17.9,7.8,38.3,30.7,36.6c18.3-1.4,39.1-16.9,52.5-28.8
				C1756.6,1260.3,1790.5,1205.1,1744,1203.3"/>
			<path class="st4" d="M1355.7,1380.1c-11.7,5.4-37.6,12.7-44.2-3.5c-9.1-22.5,20.2-62,34.2-77c8.6-9.2,14.4-14,26.4-8
				c9.6,4.8,23.6,18.3,27.3,28.8C1407.3,1342.7,1374,1371.7,1355.7,1380.1 M1382.6,1271.9c9.6,2.2,10.7,14.3-1.2,9.6
				C1372.4,1278.1,1370.3,1269.2,1382.6,1271.9 M1394.6,1289c-3.6-10.9,3.7-28-13.9-28.8c-10-0.4-28.2,9.7-36.9,13.8
				c-12.1,5.7-23.4,14.4-29.7,26.7c-5.8,11.4-1.7,14.4,7.2,4.9c1.1,0.7-20.1,55.4-20.3,60.9c-0.8,25,16.9,41.5,41.8,37.1
				c22.9-4.1,43.5-22.8,56.1-41.7c6.4-9.6,11.6-20.5,12.1-32.2C1411.7,1311.8,1399.7,1304.6,1394.6,1289"/>
			<path class="st4" d="M1504.3,1279.9c-9.7-18.6,12.7-49.8,32.7-40.7C1578.8,1258.2,1517,1304.2,1504.3,1279.9z M1541.8,1255.6
				c-4.5,0.2-32.8,11.1-28.6,18.5C1518.9,1284.3,1539.5,1259.7,1541.8,1255.6z"/>
			<path class="st4" d="M174.3,1221.3c-1.1-7.9-18.9,3.6-18.8,8.7C158.4,1224.1,176.6,1237.7,174.3,1221.3"/>
			<path class="st4" d="M1144.7,623.2c22.6-1.7-6.2-115.6-22.7-105.5C1104.2,528.6,1124,624.8,1144.7,623.2"/>
			<path class="st4" d="M1186.9,570c21.2,3,17.8-45.6,6.4-54.2C1172.3,499.7,1161.2,566.4,1186.9,570"/>
		</g>
	</g>
	<circle class="st2" cx="450" cy="-322" r="551"/>
	<circle class="st2" cx="1056.7" cy="67" r="551"/>
</g>
</svg>
