<?xml version="1.0" standalone="no"?>
<!DOCTYPE svg PUBLIC "-//W3C//DTD SVG 20010904//EN"
 "http://www.w3.org/TR/2001/REC-SVG-20010904/DTD/svg10.dtd">
<svg version="1.0" xmlns="http://www.w3.org/2000/svg"
 width="260.000000pt" height="260.000000pt" viewBox="0 0 260.000000 260.000000"
 preserveAspectRatio="xMidYMid meet">
<metadata>
Created by potrace 1.11, written by Peter Selinger 2001-2013
</metadata>
<g transform="translate(0.000000,260.000000) scale(0.100000,-0.100000)"
fill="#000000" stroke="none">
<path d="M111 2516 c-52 -29 -50 24 -51 -1214 0 -1253 -3 -1194 55 -1220 20
-9 307 -12 1181 -12 1255 0 1196 -3 1222 55 9 20 12 305 12 1175 0 870 -3
1155 -12 1175 -26 58 33 55 -1225 55 -942 -1 -1162 -3 -1182 -14z m1747 -170
c37 -19 68 -54 89 -101 17 -37 18 -97 21 -890 3 -903 1 -961 -43 -1026 -44
-68 -151 -98 -229 -65 -43 18 -92 78 -105 132 -6 23 -11 102 -11 174 0 108 -2
131 -14 127 -187 -72 -416 -82 -616 -27 -68 19 -234 89 -227 96 1 2 30 -4 62
-12 87 -21 305 -29 406 -14 99 14 217 50 317 95 67 31 72 36 72 64 l0 31 -71
-35 c-172 -87 -332 -121 -537 -112 -203 8 -364 56 -448 133 -27 25 -40 43 -29
39 126 -41 183 -49 355 -49 158 1 185 3 275 28 119 32 294 116 388 186 60 45
67 53 67 85 l0 35 -57 -47 c-125 -101 -264 -171 -423 -213 -108 -28 -317 -38
-428 -20 -98 15 -232 57 -254 78 -16 16 -4 17 180 18 179 0 206 3 292 26 264
71 471 196 633 381 54 60 58 69 55 108 l-3 42 -34 -48 c-51 -71 -170 -187
-253 -245 -129 -91 -277 -158 -440 -197 -90 -22 -449 -26 -483 -6 -19 12 -18
12 10 13 57 0 209 32 305 62 369 118 680 379 852 714 45 88 46 91 50 204 4 99
8 122 29 160 36 66 78 90 156 90 35 0 76 -6 91 -14z"/>
</g>
</svg>
