<svg enable-background="new 0 0 1920 1280" viewBox="0 0 1920 1280" xmlns="http://www.w3.org/2000/svg"><g clip-rule="evenodd" fill-rule="evenodd"><path d="m412.07 414.04h134.58c14.96 0 27.2 12.24 27.2 27.2v327.28c0 14.96-12.24 27.2-27.2 27.2h-134.58c-14.96 0-27.2-12.24-27.2-27.2v-327.28c0-14.96 12.24-27.2 27.2-27.2z" fill="#eff2f5"/><path d="m425.82 403.18h134.58c14.96 0 27.2 12.24 27.2 27.2v327.28c0 14.96-12.24 27.2-27.2 27.2h-134.58c-14.96 0-27.2-12.24-27.2-27.2v-327.29c0-14.95 12.24-27.19 27.2-27.19z" fill="#fdf3f5"/><path d="m425.82 407.3c-12.68 0-23.07 10.39-23.07 23.07v327.28c0 12.68 10.39 23.07 23.07 23.07h134.58c12.68 0 23.07-10.39 23.07-23.07v-327.28c0-12.68-10.39-23.07-23.07-23.07z" fill="#fff"/><path d="m414.01 445.98h158.2c1.11 0 2.02.91 2.02 2.02v167.63c0 1.11-.91 2.02-2.02 2.02h-158.2c-1.11 0-2.02-.91-2.02-2.02v-167.63c0-1.11.91-2.02 2.02-2.02z" fill="#ff7f66"/><path d="m574.23 606.03v126.37c0 1.11-.91 2.02-2.02 2.02h-158.2c-1.11 0-2.02-.91-2.02-2.02v-126.37z" fill="#e0dcd9"/><path d="m478.77 430.99c-1.11 0-2-.9-2-2 0-1.11.9-2 2-2h37.08c1.11 0 2 .9 2 2 0 1.11-.9 2-2 2zm-6.69-4c1.11 0 2 .9 2 2 0 1.11-.9 2-2 2h-1.71c-1.1 0-2-.9-2-2 0-1.11.9-2 2-2z" fill="#e6e0de"/><path d="m493.11 772.43c7.21 0 13.1-5.88 13.1-13.1 0-7.21-5.88-13.1-13.1-13.1-7.21 0-13.1 5.88-13.1 13.1s5.89 13.1 13.1 13.1z" fill="#e6e0de"/><path d="m557.09 710.34h-9.69c-.47 0-.9.19-1.21.5s-.5.74-.5 1.21v9.91c-.01.28.03.44.35.56.52.22.53.04.7-.28l.02-.03c.15-.26.72-1.2 1.59-1.84.46-.34 1.01-.59 1.63-.59h.75v.64c0 .39.16.74.41 1 .26.26.61.41 1 .41h5.29c.42 0 .8.18 1.12.41.59.44.99 1.06 1.12 1.29l.03.05c.16.32.29.45.72.27.33-.14.35-.28.33-.54.07-2.39 0-4.96 0-7.36 0-.39-.16-.74-.41-1-.26-.26-.61-.42-1-.42h-.53v-2.48c0-.47-.19-.9-.5-1.21-.32-.3-.75-.5-1.22-.5zm-8.33 6.14h-.58c-.18 0-.33-.15-.33-.33s.15-.33.33-.33h.58c.18 0 .33.15.33.33 0 .19-.15.33-.33.33zm1.25-.65h5.35c.18 0 .33.15.33.33s-.15.33-.33.33h-5.35c-.18 0-.33-.15-.33-.33 0-.19.14-.33.33-.33zm5.71-2.55h.58c.18 0 .33.15.33.33s-.15.33-.33.33h-.58c-.18 0-.33-.15-.33-.33s.15-.33.33-.33zm-1.24.66h-6.3c-.18 0-.33-.15-.33-.33s.15-.33.33-.33h6.3c.18 0 .33.15.33.33s-.15.33-.33.33zm-2.66 5.83h5.27c.47 0 .9-.19 1.21-.5s.5-.74.5-1.21v-2.43h.53c.09 0 .17.04.22.09.06.06.09.14.09.22v5.79c-.14-.13-.29-.26-.45-.38-.49-.36-1.09-.63-1.77-.63h-5.29c-.09 0-.17-.04-.22-.09-.06-.06-.09-.14-.09-.22zm-4.42-8.33h9.69c.17 0 .32.07.43.18s.18.26.18.43v3.03 2.98c0 .17-.07.32-.18.43s-.26.18-.43.18h-5.82-1.3c-.88 0-1.64.34-2.27.81-.34.25-.65.54-.91.83v-8.26c0-.17.07-.32.18-.43s.26-.18.43-.18z" fill="#fff"/><path d="m512.45 705.47c-1.1 0-2.1.45-2.82 1.17s-1.17 1.72-1.17 2.82.45 2.1 1.17 2.82l.03.03c.72.71 1.7 1.14 2.79 1.14 1.1 0 2.1-.45 2.82-1.17s1.17-1.72 1.17-2.82-.45-2.1-1.17-2.82c-.73-.72-1.72-1.17-2.82-1.17zm-4.45 14.3v-.02-.02-.35c0-1.21.49-2.31 1.28-3.11l.03-.03c.81-.8 1.92-1.31 3.14-1.31s2.33.5 3.14 1.31c.81.8 1.3 1.91 1.3 3.14v.35.02.01 2.83c0 .06-.03.12-.07.16s-.1.07-.16.07h-8.42c-.06 0-.12-.02-.16-.07-.04-.04-.07-.1-.07-.16v-2.82zm-1.09-.02v.02 2.83c0 .37.15.7.39.94s.57.39.94.39h8.42c.36 0 .7-.15.94-.39s.39-.58.39-.94v-2.83-.02-.01-.35c0-1.52-.62-2.91-1.63-3.91-1-1-2.39-1.63-3.91-1.63s-2.91.62-3.91 1.63l-.03.03c-.99 1-1.6 2.37-1.6 3.88v.35zm3.49-12.33c.52-.52 1.25-.85 2.04-.85.8 0 1.52.32 2.04.85.52.52.85 1.24.85 2.04s-.32 1.52-.84 2.04-1.24.84-2.04.84c-.79 0-1.5-.31-2.02-.82l-.03-.03c-.52-.52-.85-1.25-.85-2.04s.33-1.51.85-2.03z" fill="#fff"/><path d="m469.78 710.91c-.35.12-.68.27-1 .46-.32.18-.62.4-.9.64l-1.13-.65-.05-.03c-.19-.09-.4-.11-.59-.06-.21.06-.4.19-.51.39l-1.03 1.79c-.12.2-.14.43-.09.64.06.21.19.4.39.51l1.13.65c-.02.11-.04.22-.05.33-.03.26-.05.51-.05.76s.02.5.05.76c.02.12.03.23.05.34l-1.13.65c-.2.12-.34.3-.39.51-.06.21-.03.44.09.64l1.03 1.79c.12.2.3.34.51.39.21.06.44.03.64-.09l1.13-.65c.28.24.58.46.9.64s.65.33 1 .46v1.3c0 .23.1.44.25.59s.36.25.6.25h2.07c.23 0 .44-.09.6-.25l.05-.05c.13-.15.2-.34.2-.54v-1.3c.35-.12.68-.27 1-.46.32-.18.62-.4.9-.64l1.13.65.05.03c.19.09.4.11.59.06.21-.06.4-.19.51-.39l1.03-1.79c.12-.2.14-.43.09-.64-.06-.21-.19-.4-.39-.51l-1.13-.65c.02-.11.04-.22.05-.34.03-.26.05-.51.05-.76s-.02-.5-.05-.76c-.01-.11-.03-.22-.05-.33l1.13-.65c.2-.12.34-.3.39-.51.06-.21.03-.44-.08-.64l-1.03-1.79c-.12-.2-.3-.34-.51-.4s-.44-.03-.64.08l-1.13.65c-.28-.24-.58-.46-.9-.64-.31-.18-.65-.34-1-.46v-1.3c0-.23-.1-.44-.25-.59-.15-.16-.36-.25-.6-.25h-2.07c-.23 0-.44.09-.6.25l-.05.05c-.12.15-.2.34-.2.54v1.32zm-.44 1.4c.34-.2.71-.35 1.1-.46.25-.05.44-.27.44-.54v-1.45h1.56v1.45c0 .24.16.46.41.53.4.11.78.27 1.14.47.35.21.68.46.97.74.17.18.45.23.67.1l1.26-.73.78 1.35-1.23.71c-.23.11-.36.38-.29.64.06.2.1.41.12.6.03.19.04.4.04.62s-.01.42-.04.62-.07.4-.12.6c-.06.23.04.49.26.62l1.26.73-.78 1.35-1.26-.73c-.21-.12-.48-.09-.66.09-.29.29-.62.55-.98.75-.34.2-.71.35-1.1.46-.25.05-.44.27-.44.54v1.45h-1.56v-1.45c0-.24-.16-.46-.41-.53-.4-.11-.78-.27-1.14-.47-.35-.21-.68-.46-.97-.75-.17-.18-.45-.23-.67-.1l-1.26.73-.78-1.35 1.22-.7c.24-.11.37-.38.3-.64-.06-.21-.1-.41-.12-.6-.03-.19-.04-.4-.04-.62s.01-.42.04-.62.07-.4.12-.6c.06-.23-.03-.49-.26-.62l-1.26-.73.78-1.35 1.26.73c.21.12.48.09.66-.09.29-.29.62-.54.98-.75zm2.32 1.1c.79 0 1.51.31 2.04.83l.03.03c.53.53.86 1.26.86 2.07s-.33 1.54-.86 2.07-1.27.86-2.07.86c-.81 0-1.54-.33-2.07-.86s-.86-1.27-.86-2.07c0-.81.33-1.54.86-2.07s1.26-.86 2.07-.86zm-1.3 1.63c.33-.33.79-.54 1.3-.54.5 0 .95.19 1.27.51l.02.02c.33.33.54.79.54 1.3s-.21.97-.54 1.3-.79.54-1.3.54-.97-.21-1.3-.54-.54-.79-.54-1.3c.01-.49.22-.95.55-1.29z" fill="#fff"/><path d="m426.87 714.5c-.95.95-1.42 2.19-1.42 3.44 0 1.24.48 2.49 1.42 3.44l.03.03c.95.93 2.17 1.39 3.4 1.39 1.07 0 2.14-.35 3.03-1.06l2.03 2.03c.21.21.56.21.78 0 .21-.21.21-.56 0-.78l-2.03-2.03c.7-.88 1.06-1.96 1.06-3.03 0-1.24-.48-2.49-1.42-3.44-.95-.95-2.19-1.43-3.44-1.43-1.25.01-2.49.49-3.44 1.44zm6.11 6.08-.01.01-.01.01c-.73.73-1.69 1.09-2.65 1.09-.95 0-1.9-.36-2.63-1.07l-.03-.03c-.73-.73-1.1-1.7-1.1-2.66s.37-1.93 1.1-2.66 1.7-1.1 2.66-1.1 1.93.37 2.66 1.1 1.1 1.7 1.1 2.66-.36 1.92-1.09 2.65z" fill="#fff"/><path d="m546.06 713.52c1.59 0 2.89-1.3 2.89-2.89s-1.3-2.89-2.89-2.89-2.89 1.3-2.89 2.89c.01 1.59 1.3 2.89 2.89 2.89z" fill="#fdf3f5"/><path d="m546.39 712.01h-.56v-2.14c-.21.19-.45.34-.73.43v-.52c.15-.05.31-.14.48-.28.17-.13.29-.29.36-.47h.46v2.98z" fill="#2d818f"/><path d="m424.69 548.35h136.84c2.69 0 4.9 2.2 4.9 4.9v58.52c0 2.69-2.2 4.9-4.9 4.9h-136.84c-2.69 0-4.9-2.2-4.9-4.9v-58.52c0-2.7 2.21-4.9 4.9-4.9z" fill="#fdf3f5"/><path d="m510.62 624.93h39.66c2.74 0 4.98 2.24 4.98 4.98v28.33c0 2.74-2.24 4.98-4.98 4.98h-39.66c-2.74 0-4.98-2.24-4.98-4.98v-28.33c0-2.74 2.25-4.98 4.98-4.98z" fill="#10ab7c"/><path d="m489.33 623.95c.54 0 .97.44.97.97 0 .54-.44.97-.97.97h-5.5c-.54 0-.97-.44-.97-.97 0-.54.44-.97.97-.97zm65.94 67.01c.54 0 .97.44.97.97 0 .54-.44.97-.97.97h-51.6c-.54 0-.97-.44-.97-.97 0-.54.44-.97.97-.97zm-60.36 0c.54 0 .97.44.97.97 0 .54-.44.97-.97.97h-5.92c-.54 0-.97-.44-.97-.97 0-.54.44-.97.97-.97zm60.36-9.57c.54 0 .97.44.97.97 0 .54-.44.97-.97.97h-33.23c-.54 0-.97-.44-.97-.97 0-.54.44-.97.97-.97zm-37.87 0c.54 0 .97.44.97.97 0 .54-.44.97-.97.97h-28.42c-.54 0-.97-.44-.97-.97 0-.54.44-.97.97-.97zm37.87-9.58c.54 0 .97.43.97.97s-.44.97-.97.97h-11.94c-.54 0-.97-.44-.97-.97s.44-.97.97-.97zm-20.01 0c.54 0 .97.43.97.97s-.44.97-.97.97h-29.79c-.54 0-.97-.44-.97-.97s.44-.97.97-.97zm-34.42 0c.54 0 .97.43.97.97s-.44.97-.97.97h-11.85c-.54 0-.97-.44-.97-.97s.44-.97.97-.97zm-11.51-9.57c.54 0 .97.44.97.97 0 .54-.44.97-.97.97h-34.86c-.54 0-.97-.44-.97-.97 0-.54.44-.97.97-.97zm-43.78 0c.54 0 .97.44.97.97 0 .54-.44.97-.97.97h-14.59c-.54 0-.97-.44-.97-.97 0-.54.44-.97.97-.97zm43.78-9.57c.54 0 .97.44.97.97 0 .54-.44.97-.97.97h-11.33c-.54 0-.97-.43-.97-.97s.44-.97.97-.97zm-14.25 0c.54 0 .97.44.97.97 0 .54-.44.97-.97.97h-30.22c-.54 0-.97-.43-.97-.97s.44-.97.97-.97zm-35.89 0c.54 0 .97.44.97.97 0 .54-.44.97-.97.97h-8.24c-.54 0-.97-.43-.97-.97s.44-.97.97-.97zm50.14-9.57c.54 0 .97.44.97.97 0 .54-.44.97-.97.97h-25.76c-.54 0-.97-.44-.97-.97 0-.54.44-.97.97-.97zm-30.22 0c.54 0 .97.44.97.97 0 .54-.44.97-.97.97h-28.16c-.54 0-.97-.44-.97-.97 0-.54.44-.97.97-.97zm30.22-9.57c.54 0 .97.44.97.97 0 .54-.44.97-.97.97h-46.88c-.54 0-.97-.44-.97-.97 0-.54.44-.97.97-.97zm-53.06 0c.54 0 .97.44.97.97 0 .54-.44.97-.97.97h-5.32c-.54 0-.97-.44-.97-.97 0-.54.44-.97.97-.97zm42.5-9.58c.54 0 .97.44.97.97 0 .54-.44.97-.97.97h-47.82c-.54 0-.97-.44-.97-.97 0-.54.44-.97.97-.97z" fill="#a3a4a4"/><path d="m478.87 691.93h-46.64c-1.42 0-2.57-1.16-2.57-2.58v-11.46c0-1.42 1.16-2.57 2.57-2.57h46.64c1.42 0 2.57 1.16 2.57 2.57v11.46c0 1.42-1.15 2.58-2.57 2.58z" fill="#ff7f66"/><path d="m553.84 572.51h-20.51c-.78 0-1.42-.64-1.42-1.42v-6.34c0-.78.64-1.42 1.42-1.42h20.51c.78 0 1.42.64 1.42 1.42v6.34c.01.78-.63 1.42-1.42 1.42z" fill="#b4b5b5"/><path d="m553.84 598.44h-20.51c-.78 0-1.42-.64-1.42-1.42v-6.34c0-.78.64-1.42 1.42-1.42h20.51c.78 0 1.42.64 1.42 1.42v6.34c.01.78-.63 1.42-1.42 1.42z" fill="#ee8487"/><path d="m518.18 597.66c.54 0 .97.44.97.97 0 .54-.44.97-.97.97h-46.88c-.54 0-.97-.44-.97-.97 0-.54.44-.97.97-.97zm-53.06 0c.54 0 .97.44.97.97 0 .54-.44.97-.97.97h-5.32c-.54 0-.97-.44-.97-.97 0-.54.44-.97.97-.97zm53.06-9.57c.54 0 .97.44.97.97 0 .54-.44.97-.97.97h-5.5c-.54 0-.97-.44-.97-.97 0-.54.44-.97.97-.97zm-10.56 0c.54 0 .97.44.97.97 0 .54-.44.97-.97.97h-47.82c-.54 0-.97-.44-.97-.97 0-.54.44-.97.97-.97zm10.56-16.36c.54 0 .97.44.97.97 0 .54-.44.97-.97.97h-46.88c-.54 0-.97-.44-.97-.97 0-.54.44-.97.97-.97zm-53.06 0c.54 0 .97.44.97.97 0 .54-.44.97-.97.97h-5.32c-.54 0-.97-.44-.97-.97 0-.54.44-.97.97-.97zm53.06-9.57c.54 0 .97.44.97.97 0 .54-.44.97-.97.97h-5.5c-.54 0-.97-.44-.97-.97 0-.54.44-.97.97-.97zm-10.56 0c.54 0 .97.44.97.97 0 .54-.44.97-.97.97h-47.82c-.54 0-.97-.44-.97-.97 0-.54.44-.97.97-.97z" fill="#b4b5b5"/><path d="m439.2 602.1c4.54 0 8.25-3.71 8.25-8.25s-3.71-8.25-8.25-8.25-8.25 3.71-8.25 8.25 3.71 8.25 8.25 8.25z" fill="#174f84"/><path d="m441.56 561.74 4.47.29c.43.03.78.3.91.71s.01.83-.32 1.11l-3.44 2.86 1.11 4.34c.11.42-.04.83-.39 1.08s-.79.27-1.15.04l-3.78-2.39-3.78 2.39c-.36.23-.81.22-1.15-.04-.35-.25-.5-.67-.39-1.08l1.11-4.34-3.45-2.86c-.33-.27-.45-.7-.32-1.11s.48-.68.91-.71l4.47-.29 1.65-4.16c.16-.4.52-.65.95-.65s.8.25.95.65z" fill="#174f84"/><g fill="#fff"><path d="m436.33 589.78c.51 0 .92.42.92.92v1.76c0 .51-.42.92-.92.92-.51 0-.92-.42-.92-.92v-1.76c0-.51.41-.92.92-.92z"/><path d="m442.08 589.78c.51 0 .92.42.92.92v1.76c0 .51-.42.92-.92.92-.51 0-.92-.42-.92-.92v-1.76c0-.51.41-.92.92-.92z"/><path d="m443.48 594.9c0-.27.22-.49.49-.49s.49.22.49.49c0 1.45-.59 2.76-1.54 3.71s-2.26 1.54-3.71 1.54-2.76-.59-3.71-1.54-1.54-2.26-1.54-3.71c0-.27.22-.49.49-.49s.49.22.49.49c0 1.18.48 2.25 1.25 3.02s1.84 1.25 3.02 1.25 2.25-.48 3.02-1.25 1.25-1.84 1.25-3.02z"/><path d="m430.1 802.03c1.08 0 2.05.44 2.76 1.14.71.71 1.14 1.68 1.14 2.76s-.44 2.06-1.14 2.76l-.04.04c-.7.68-1.66 1.11-2.72 1.11-1.08 0-2.06-.44-2.76-1.14-.71-.71-1.15-1.68-1.15-2.76s.44-2.06 1.15-2.76c.71-.71 1.68-1.15 2.76-1.15zm1.78 2.13c-.45-.45-1.08-.73-1.78-.73-.69 0-1.32.28-1.78.74-.45.46-.74 1.08-.74 1.78s.28 1.32.74 1.78c.45.46 1.08.74 1.78.74.68 0 1.3-.27 1.75-.71l.03-.03c.45-.45.74-1.08.74-1.78s-.29-1.33-.74-1.79z"/><path d="m349.33 552.3c0-.38.31-.7.7-.7.38 0 .7.31.7.7v2.25h2.25c.38 0 .7.31.7.7 0 .38-.31.7-.7.7h-2.25v2.25c0 .38-.31.7-.7.7-.38 0-.7-.31-.7-.7v-2.25h-2.25c-.38 0-.7-.31-.7-.7s.31-.7.7-.7h2.25z"/><path d="m422.83 453.61c-.27 0-.49-.22-.49-.49s.22-.49.49-.49h10.65c.27 0 .49.22.49.49s-.22.49-.49.49zm0 7c-.27 0-.49-.22-.49-.49s.22-.49.49-.49h10.65c.27 0 .49.22.49.49s-.22.49-.49.49zm0-3.5c-.27 0-.49-.22-.49-.49s.22-.49.49-.49h10.65c.27 0 .49.22.49.49s-.22.49-.49.49z"/><path d="m550.64 454.11h6.25v5.03h-6.25c-.14 0-.26-.06-.35-.15s-.15-.22-.15-.35v-4.02c0-.14.06-.27.15-.36.08-.1.21-.15.35-.15zm11.76-.98h-11.76c-.41 0-.78.17-1.04.43-.27.27-.43.64-.43 1.04v4.02c0 .41.17.78.43 1.04.27.27.64.43 1.04.43h11.76c.39 0 .75-.15 1.01-.4l.03-.03c.27-.27.43-.64.43-1.04v-4.02c0-.41-.17-.77-.44-1.04-.26-.26-.62-.43-1.03-.43z"/></g><path d="m532.22 495.51c3.71 0 7.06-1.5 9.49-3.93s3.93-5.78 3.93-9.49c0-3.7-1.5-7.06-3.93-9.49s-5.78-3.93-9.49-3.93c-3.7 0-7.06 1.5-9.49 3.93s-3.93 5.78-3.93 9.49 1.5 7.06 3.93 9.49 5.79 3.93 9.49 3.93z" fill="#ee8487"/><path d="m536.86 494.7v30.25c0 2.36-.96 4.51-2.52 6.06-.62.62-1.32 1.14-2.1 1.54h16.16c.27 0 .49.22.49.49s-.22.49-.49.49h-20.06-.06-70.34-.05-20.06c-.27 0-.49-.22-.49-.49s.22-.49.49-.49h16.16c-.78-.41-1.48-.93-2.1-1.54-1.55-1.55-2.52-3.7-2.52-6.06v-43.91c0-2.36.96-4.51 2.52-6.06 1.55-1.55 3.7-2.52 6.06-2.52h62.35c.37-.48.77-.93 1.2-1.36 2.6-2.6 6.2-4.21 10.17-4.21s7.57 1.61 10.18 4.21c2.6 2.6 4.21 6.2 4.21 10.18 0 3.97-1.61 7.57-4.21 10.18-1.41 1.4-3.11 2.51-4.99 3.24zm-.82-23.72c.19.08.37.16.55.25l.03.01c.16.08.33.17.51.27.23.13.53.05.66-.19.13-.23.05-.53-.19-.66-.17-.09-.35-.19-.56-.29l-.02-.01c-.2-.1-.4-.19-.6-.27-.25-.11-.53.01-.64.26-.1.24.02.53.26.63zm2.57 1.54c.82.65 1.55 1.41 2.16 2.26.6.84 1.09 1.77 1.44 2.76.09.25.37.39.62.3s.39-.37.3-.62c-.38-1.08-.91-2.09-1.57-3-.66-.93-1.45-1.76-2.34-2.46-.21-.17-.52-.13-.68.08-.17.2-.14.51.07.68zm-19.02.92h-61.65c-2.09 0-4 .86-5.37 2.23-1.38 1.38-2.23 3.28-2.23 5.37v43.91c0 2.09.85 4 2.23 5.37 1.36 1.36 3.24 2.21 5.31 2.23h70.47c2.07-.02 3.94-.87 5.31-2.23 1.38-1.38 2.23-3.28 2.23-5.37v-29.92c-.56.17-1.13.31-1.71.41v29.5c0 1.62-.66 3.1-1.73 4.16-1.07 1.07-2.54 1.73-4.17 1.73h-70.34c-1.62 0-3.1-.66-4.17-1.73s-1.73-2.54-1.73-4.16v-38.13-5.78c0-1.62.66-3.1 1.73-4.17s2.54-1.73 4.17-1.73h60.7c.28-.57.6-1.15.95-1.69zm13.61 22.15c-.51.05-1.02.08-1.54.08-1.38 0-2.71-.19-3.98-.56v.61c0 .52-.21.99-.55 1.33s-.81.55-1.33.55h-65.39c-.52 0-.99-.21-1.33-.55s-.55-.81-.55-1.33v-2.32c0-.52.21-.98.55-1.33.34-.34.81-.55 1.32-.55h61.15l-.07-.07c-1.19-1.19-2.18-2.59-2.89-4.14h-65.58v37.64c0 1.35.55 2.58 1.45 3.48.89.89 2.12 1.45 3.48 1.45h70.34c1.35 0 2.58-.55 3.48-1.45.89-.89 1.45-2.12 1.45-3.48v-29.36zm-6.1-.66c-1.83-.61-3.49-1.58-4.91-2.82h-61.77c-.36 0-.68.15-.91.38s-.38.56-.38.91v2.32c0 .35.15.68.38.91s.56.38.91.38h65.39c.36 0 .68-.15.91-.38s.38-.56.38-.91zm-8.91-8.59c-.59-1.57-.92-3.28-.92-5.06 0-1.82.34-3.56.95-5.16h-60.28c-1.35 0-2.58.55-3.48 1.45-.89.89-1.45 2.12-1.45 3.48v5.3h65.18zm22.96-14.55c-2.43-2.43-5.78-3.93-9.49-3.93-3.7 0-7.06 1.5-9.49 3.93s-3.93 5.78-3.93 9.49c0 3.7 1.5 7.06 3.93 9.49s5.78 3.93 9.49 3.93 7.06-1.5 9.49-3.93 3.93-5.78 3.93-9.49c0-3.7-1.5-7.06-3.93-9.49zm9.97 60.77c.27 0 .49.22.49.49s-.22.49-.49.49h-1.03c-.27 0-.49-.22-.49-.49s.22-.49.49-.49zm-115.19 0c.27 0 .49.22.49.49s-.22.49-.49.49h-1.03c-.27 0-.49-.22-.49-.49s.22-.49.49-.49zm53.17-15.83h37.83c.16 0 .29-.13.29-.29s-.13-.29-.29-.29h-37.83c-.16 0-.29.13-.29.29s.13.29.29.29zm-4.2-4.99h42.03c.16 0 .29-.13.29-.29s-.13-.29-.29-.29h-42.03c-.16 0-.29.13-.29.29s.13.29.29.29zm0-5h42.03c.16 0 .29-.13.29-.29s-.13-.29-.29-.29h-42.03c-.16 0-.29.13-.29.29s.13.29.29.29zm-25.61-4.99h67.63c.16 0 .29-.13.29-.29s-.13-.29-.29-.29h-67.63c-.16 0-.29.13-.29.29s.13.29.29.29zm1.83 4.41c-.71 0-1.36.29-1.82.76-.47.47-.76 1.11-.76 1.82v7.81c0 .71.29 1.36.76 1.82.47.47 1.11.76 1.82.76h15.52c.7 0 1.34-.28 1.81-.74l.02-.02c.47-.47.76-1.11.76-1.82v-7.81c0-.71-.29-1.36-.76-1.82-.47-.47-1.11-.76-1.82-.76zm15.52.58h-15.52c-.55 0-1.05.23-1.41.59s-.59.86-.59 1.41v7.81c0 .55.23 1.05.59 1.41s.86.59 1.41.59h15.52c.54 0 1.04-.22 1.4-.57l.01-.01c.36-.36.59-.86.59-1.41v-7.81c0-.55-.23-1.05-.59-1.41-.36-.37-.86-.6-1.41-.6z" fill="#fff"/><path d="m459.06 479.88c.64 0 1.17.52 1.17 1.17 0 .64-.52 1.17-1.17 1.17-.64 0-1.17-.52-1.17-1.17s.53-1.17 1.17-1.17z" fill="#fff"/><path d="m462.67 479.88c.64 0 1.17.52 1.17 1.17 0 .64-.52 1.17-1.17 1.17-.64 0-1.17-.52-1.17-1.17.01-.65.53-1.17 1.17-1.17z" fill="#fff"/><path d="m466.29 479.88c.64 0 1.17.52 1.17 1.17 0 .64-.52 1.17-1.17 1.17-.64 0-1.17-.52-1.17-1.17s.52-1.17 1.17-1.17z" fill="#fff"/><path d="m469.9 479.88c.64 0 1.17.52 1.17 1.17 0 .64-.52 1.17-1.17 1.17-.64 0-1.17-.52-1.17-1.17.01-.65.53-1.17 1.17-1.17z" fill="#fff"/><path d="m533.94 487.82c0 .54-.44.97-.97.97-.54 0-.97-.44-.97-.97v-2.89h-5.51c-.19 0-.39-.06-.56-.18-.44-.31-.54-.91-.24-1.35l6.45-9.16c.17-.28.48-.46.83-.46.54 0 .97.44.97.97v8.24h1.6c.54 0 .97.44.97.97 0 .54-.44.97-.97.97h-1.6zm-1.95-4.84v-5.17l-3.64 5.17z" fill="#fff"/><path d="m533.09 635.36c-.25-.1-.36-.39-.26-.64s.39-.36.64-.26c.2.09.4.18.6.28l.02.01c.2.1.39.2.56.29.23.13.32.43.19.66s-.43.32-.66.19c-.18-.1-.35-.19-.51-.27l-.03-.01c-.18-.09-.36-.17-.55-.25zm.84-2.98v-3.48c0-.32-.13-.6-.34-.81s-.5-.34-.81-.34h-4.65c-.32 0-.61.13-.81.34-.21.21-.34.5-.34.81v3.48c-.92.27-1.8.66-2.62 1.13-.83.48-1.6 1.05-2.29 1.71l-3.02-1.74c-.27-.16-.59-.19-.87-.12-.28.08-.54.26-.7.54l-2.32 4.02c-.16.27-.19.59-.12.87.08.28.26.54.53.7l3.01 1.74c-.09.39-.17.8-.23 1.22-.07.54-.11 1.08-.11 1.62s.04 1.08.11 1.61c.06.42.13.83.23 1.22l-3.01 1.74c-.27.16-.46.41-.53.7-.08.28-.04.6.12.87l2.32 4.02c.16.27.41.46.7.53.27.07.57.05.84-.1l3.05-1.76c.69.66 1.46 1.23 2.29 1.71.82.47 1.69.85 2.62 1.13v3.48c0 .32.13.61.34.81.21.21.5.34.81.34h4.65c.32 0 .61-.13.81-.34.21-.21.34-.5.34-.81v-3.48c.92-.27 1.8-.65 2.62-1.13.83-.48 1.6-1.06 2.29-1.71l3.02 1.74c.27.16.59.19.87.11s.54-.26.7-.54l2.32-4.02c.16-.28.19-.59.12-.87-.08-.28-.26-.54-.53-.7l-3.01-1.74c.09-.4.17-.8.23-1.22.07-.54.11-1.08.11-1.61 0-.54-.04-1.08-.11-1.61-.06-.42-.13-.83-.23-1.22l3.01-1.74c.27-.16.46-.41.53-.7.08-.28.04-.6-.12-.87l-2.32-4.03c-.16-.27-.41-.46-.7-.53-.27-.07-.57-.05-.84.1l-3.05 1.76c-.69-.66-1.46-1.23-2.29-1.71-.82-.46-1.7-.84-2.62-1.12zm2.13 1.97c-.84-.48-1.75-.86-2.71-1.12-.22-.04-.4-.24-.4-.48v-3.85c0-.05-.02-.09-.05-.12s-.08-.05-.12-.05h-4.65c-.05 0-.09.02-.12.05s-.05.08-.05.12v3.85c0 .21-.15.41-.36.47-.97.26-1.89.64-2.74 1.13-.86.5-1.65 1.11-2.35 1.81-.15.16-.4.2-.6.09l-3.33-1.92c-.04-.02-.09-.03-.13-.02s-.08.04-.11.08l-2.32 4.02c-.02.04-.03.09-.02.13s.04.08.08.11l3.3 1.91c.21.1.32.34.26.56-.13.48-.23.96-.29 1.45-.06.48-.1.98-.1 1.49s.03 1.01.1 1.49c.07.49.17.98.3 1.46.06.21-.03.43-.23.55l-3.33 1.92c-.04.02-.07.06-.08.11-.01.04-.01.09.02.13l2.32 4.02c.02.04.06.07.11.08.04.01.08.01.12-.01l3.34-1.93c.19-.11.43-.08.59.08.7.7 1.49 1.32 2.36 1.82.84.48 1.75.87 2.71 1.12.22.04.39.24.39.48v3.84c0 .05.02.09.05.12s.08.05.12.05h4.65c.05 0 .09-.02.12-.05s.05-.08.05-.12v-3.84c0-.21.15-.41.36-.47.97-.25 1.89-.64 2.74-1.13.86-.5 1.65-1.11 2.35-1.81.15-.16.4-.2.6-.09l3.33 1.92c.04.02.09.03.13.02s.08-.04.11-.08l2.32-4.02c.02-.04.03-.09.02-.13s-.04-.08-.08-.11l-3.3-1.91c-.2-.1-.32-.34-.25-.56.13-.48.23-.97.29-1.46.06-.48.1-.98.1-1.49s-.03-1.01-.1-1.49c-.06-.49-.16-.98-.29-1.46-.06-.21.03-.43.23-.55l3.33-1.92c.04-.02.07-.07.08-.11s.01-.09-.02-.13l-2.32-4.02c-.02-.04-.07-.07-.11-.08s-.08-.01-.12.01l-3.34 1.93c-.19.11-.43.08-.59-.08-.71-.7-1.5-1.31-2.37-1.81zm-5.6 3.87c1.62 0 3.08.66 4.14 1.71 1.06 1.06 1.71 2.52 1.71 4.14s-.66 3.08-1.71 4.14c-1.06 1.06-2.52 1.71-4.14 1.71s-3.08-.66-4.14-1.71c-1.06-1.06-1.71-2.52-1.71-4.14s.66-3.08 1.71-4.14c1.06-1.06 2.52-1.71 4.14-1.71zm3.45 2.4c.88.88 1.43 2.1 1.43 3.45s-.55 2.57-1.43 3.45-2.1 1.43-3.45 1.43-2.57-.55-3.45-1.43-1.43-2.1-1.43-3.45.55-2.57 1.43-3.45 2.1-1.43 3.45-1.43c1.34 0 2.56.55 3.45 1.43zm1.75-3.73c-.21-.17-.25-.47-.08-.68s.47-.25.68-.08c.89.71 1.68 1.54 2.34 2.46.65.91 1.18 1.92 1.57 3 .09.25-.04.53-.3.62-.25.09-.53-.04-.62-.3-.35-.99-.84-1.92-1.44-2.76-.6-.85-1.33-1.61-2.15-2.26z" fill="#fff"/></g><text transform="translate(438.7671 686.1455)"><tspan fill="#fff" font-family="'OpenSans'" font-size="8" x="0" y="0">S</tspan><tspan fill="#fff" font-family="'OpenSans'" font-size="8" x="3.94" y="0">EE MORE</tspan></text></svg>