<svg height="652" viewBox="0 0 583.9043 652" width="583.9043" xmlns="http://www.w3.org/2000/svg"><circle cx="137.03198" cy="553.16387" fill="#274991" opacity=".4" r="14.92017"/><circle cx="109.41853" cy="560.28992" fill="#274991" opacity=".4" r="10.46639"/><path d="m839.05005 473.26123a255.4403 255.4403 0 0 0 -17.90205-224.76739l-408.10015 56.50616 391.09027-81.50568a254.56224 254.56224 0 0 0 -202.09027-99.49432c-140.83264 0-255 114.16736-255 255a257.18949 257.18949 0 0 0 2.37335 34.7973z" fill="#f2f2f2" transform="translate(-308.04785 -124)"/><path d="m364.09235 470.8103c36.85803 95.46411 129.49139 163.1897 237.9555 163.1897 101.778 0 189.61694-59.63409 230.51453-145.86108z" fill="#f2f2f2" transform="translate(-308.04785 -124)"/><circle cx="106" cy="112" fill="#10ab7c" r="12"/><circle cx="538" cy="252" fill="#274991" r="12"/><path d="m105 339h20v20h-20z" fill="#274991"/><path d="m576.04785 317s33-14.37945 48.5.81027-41.5 10.18973-48.5-.81027z" fill="#10ab7c" transform="translate(-308.04785 -124)"/><path d="m633.03015 248.80469c-11.08984-18.73841-33.03021-19.6117-33.03021-19.6117s-21.37964-2.734-35.09454 25.80481c-12.78339 26.60053-30.42609 52.28388-2.84034 58.51087l4.98279-15.50867 3.08582 16.66327a107.93429 107.93429 0 0 0 11.80291.20172c29.54212-.9538 57.67652.27905 56.77063-10.3219-1.20421-14.09247 4.9936-37.70831-5.67706-55.7384z" fill="#274991" transform="translate(-308.04785 -124)"/><ellipse cx="294.5" cy="398" fill="#10ab7c" rx="56" ry="13"/><g fill="#274991"><path d="m593.47388 683.50021h54.14795v1.99959h-54.14795z" transform="matrix(.99727707 -.07374576 .07374576 .99727707 -356.83712 -76.37339)"/><path d="m566.54805 669.58729h1.99959v22.82542h-1.99959z" transform="matrix(.48191869 -.87621594 .87621594 .48191869 -610.71498 726.10779)"/><path d="m288.5 543.5h18v2h-18z"/><path d="m241.498 650.568-1.996-.136 15-232 1.996.136z"/><path d="m315.501 650.549-10-228 1.998-.098 10 228z"/><path d="m651.04766 544.10828h2.00039v230.78345h-2.00039z" transform="matrix(.99660543 -.08232623 .08232623 .99660543 -360.12854 -68.08069)"/></g><g transform="translate(-308.04785 -124)"><path d="m648.54785 588.5s-14 26-23 26-8 17-6 21 7 13-1 26c-2.7944 4.54089-2.29452 9.69184-.4608 14.47262 5.13784 13.3951 25.12393 9.33685 24.48633-4.99562q-.01054-.237-.02553-.477c-1-16 7-41 15-47s15-22 15-22z" fill="#ffb8b8"/><path d="m552.54785 582.5s14 26 23 26 8 17 6 21-7 13 1 26c2.7944 4.54089 2.29452 9.69184.4608 14.47262-5.13784 13.3951-25.12392 9.33685-24.48633-4.99562q.01054-.237.02553-.477c1-16-7-41-15-47s-15-22-15-22z" fill="#ffb8b8"/><path d="m563.54785 454.5-6 13s-88 29-80 63 47 87 53 85 38-8 39-25-23-47-23-47l33-30 48.02035-1 40.97965 31s-43 38-24 53 47 25 51 19 49-95 42-103-78-38-78-38l-19-27-74-4z" fill="#274991"/><path d="m581.54785 289.5s5 33-5 37 20 21 20 21h17l11-23s-10-18-4-35-39 0-39 0z" fill="#ffb8b8"/><path d="m581.54785 289.5s5 33-5 37 20 21 20 21h17l11-23s-10-18-4-35-39 0-39 0z" opacity=".1"/><path d="m574.54785 317.5s11 12 13 14 11 13 30-3 21 3 21 3v120s-16-7-29 0-40-2-40-2l-5-124z" fill="#d0cde1"/><path d="m581.89324 317.5s-9.34539-4-17.34539 0-36 24-34 33 28 72 10 102-21 38-21 38l44-23s34-21 31-34-12.65461-116-12.65461-116z" fill="#10ab7c"/><path d="m621.55965 317.5s20.9882 2 21.9882 4 31.5 10.5 29.5 19.5-29.5 89.5-17.5 104.5 32 36 25 38-19-3-31 0-40-22-37-49 .02359-110 9.0118-117z" fill="#10ab7c"/><g fill="#ffb8b8"><path d="m571.54785 508.5v10s-5 23 11 22 6-28 6-28l-1-9z"/><path d="m616.54785 509.5s-11 23 0 25 19-13 19-17-19-8-19-8z"/></g></g><path d="m272.5 650.524-2-.048 6-230 2 .048z" fill="#274991"/><ellipse cx="323" cy="152" fill="#ffb8b8" rx="2" ry="4"/><ellipse cx="264" cy="152" fill="#ffb8b8" rx="2" ry="4"/><path d="m648.54785 330.5s25 0 24 10-34 182-34 182-14-13-26-10z" fill="#10ab7c" transform="translate(-308.04785 -124)"/><path d="m551.54785 333.5s-25 5-25 20 36 159 41 159 24-3 24-8-40-171-40-171z" fill="#10ab7c" transform="translate(-308.04785 -124)"/><path d="m557.04785 363 22.5 87.991s-10.5-76.991-22.5-87.991z" opacity=".2" transform="translate(-308.04785 -124)"/><path d="m644.56486 350.63621-22.75586 115.04359s7.27288-108.40738 22.75586-115.04359z" opacity=".2" transform="translate(-308.04785 -124)"/><circle cx="293.5" cy="152.5" fill="#ffb8b8" r="29"/><path d="m320.079 122.998-21.676-11.354-29.933 4.645-6.193 27.353 15.416-.593 4.307-10.049v9.884l7.114-.274 4.128-15.999 2.581 17.031 25.289-.516z" fill="#274991"/><path d="m10 650h546v2h-546z" fill="#274991"/><path d="m772.63086 774.01953-2-.03906a463.83471 463.83471 0 0 1 7.09961-66.28711c8.64844-46.88086 23.0293-77.66992 42.74316-91.51172l1.14844 1.63672c-46.05176 32.33398-48.96777 154.96582-48.99121 156.20117z" fill="#10ab7c" transform="translate(-308.04785 -124)"/><path d="m797.63086 773.541-2-.03907c.043-2.21484 1.293-54.41406 21.84277-68.84179l1.14844 1.63672c-19.7207 13.84572-20.98144 66.71193-20.99121 67.24414z" fill="#10ab7c" transform="translate(-308.04785 -124)"/><circle cx="525" cy="483" fill="#274991" r="10"/><circle cx="520" cy="570" fill="#274991" r="10"/><path d="m792.96963 623.99461c1.87935 12.004-3.01891 22.74063-3.01891 22.74063s-7.94529-8.72581-9.82464-20.72985 3.0189-22.74063 3.0189-22.74063 7.94529 8.72581 9.82465 20.72985z" fill="#ff7f66" transform="translate(-308.04785 -124)"/><path d="m825.6568 653.14836c-11.49295 3.9422-22.91878.98962-22.91878.98962s7.20793-9.34414 18.70088-13.28634 22.91879-.98962 22.91879-.98962-7.20794 9.34414-18.70089 13.28634z" fill="#ff7f66" transform="translate(-308.04785 -124)"/><path d="m826.02605 729.3095a31.134 31.134 0 0 1 -16.06421.69365 28.37377 28.37377 0 0 1 29.172-10.0063 31.134 31.134 0 0 1 -13.10779 9.31265z" fill="#ff7f66" transform="translate(-308.04785 -124)"/><g fill="#274991"><path d="m2 192h-2v-130h128v2h-126z"/><path d="m583.904 192h-2v-128h-126v-2h128z"/><path d="m2 302h-2v130h128v-2h-126z"/><path d="m583.904 302h-2v128h-126v2h128z"/></g><g fill="#10ab7c"><path d="m36 123h140v2h-140z"/><path d="m74 105h2v18.5h-2z"/><path d="m135 105h2v18.5h-2z"/><path d="m414 264h140v2h-140z"/><path d="m452 246h2v18.5h-2z"/><path d="m513 246h2v18.5h-2z"/><path d="m45 358h140v2h-140z"/><path d="m83 340h2v18.5h-2z"/><path d="m144 340h2v18.5h-2z"/></g></svg>